<svg id="Группа_9_копия_3" data-name="Группа 9 копия 3" xmlns="http://www.w3.org/2000/svg" width="100" height="100" viewBox="0 0 100 100">
  <metadata><?xpacket begin="﻿" id="W5M0MpCehiHzreSzNTczkc9d"?>
<x:xmpmeta xmlns:x="adobe:ns:meta/" x:xmptk="Adobe XMP Core 5.6-c142 79.160924, 2017/07/13-01:06:39        ">
   <rdf:RDF xmlns:rdf="http://www.w3.org/1999/02/22-rdf-syntax-ns#">
      <rdf:Description rdf:about=""/>
   </rdf:RDF>
</x:xmpmeta>
                                                                                                    
                                                                                                    
                                                                                                    
                                                                                                    
                                                                                                    
                                                                                                    
                                                                                                    
                                                                                                    
                                                                                                    
                                                                                                    
                                                                                                    
                                                                                                    
                                                                                                    
                                                                                                    
                                                                                                    
                                                                                                    
                                                                                                    
                                                                                                    
                                                                                                    
                                                                                                    
                           
<?xpacket end="w"?></metadata>
<defs>
    <style>
      .cls-1 {
        fill: #2cbaaf;
      }

      .cls-2 {
        fill: #fff;
        fill-rule: evenodd;
      }
    </style>
  </defs>
  <circle id="Эллипс_3" data-name="Эллипс 3" class="cls-1" cx="50" cy="50" r="50"/>
  <path id="_15_subscribe_and_save" data-name="15% subscribe and save" class="cls-2" d="M701.167,10875.7l-3.833-1-8.625,3.8,1.5,3.4,3.082-1.4c0.366-.2,1.041-0.5,2.023-1.1l-0.69,2.3-0.607,2.1-3.422,12.7,4.664,1.3Zm10.187,11.5H710.8l1.568-4.2,7.878,2.1,1.06-4-11.969-3.2-3.843,11,1.59,1.5a10.679,10.679,0,0,1,1.661.1q1.008,0.15,1.808.3,4.422,1.2,3.528,4.5-0.937,3.6-5.209,2.4a19.3,19.3,0,0,1-2.9-1.2,12.219,12.219,0,0,1-2.5-1.8l-1.08,4a12.594,12.594,0,0,0,5.627,2.8,9.857,9.857,0,0,0,7.054-.2,7.323,7.323,0,0,0,3.8-5.1,6.592,6.592,0,0,0-.576-5.4,7.262,7.262,0,0,0-4.612-3.2,12.068,12.068,0,0,0-2.336-.4h0Zm17.449,0a1.251,1.251,0,0,1,1.342-.7q1.449,0.45.438,4.2c-0.679,2.5-1.5,3.7-2.468,3.4a1.131,1.131,0,0,1-.841-1.2,9.6,9.6,0,0,1,.427-3A7.9,7.9,0,0,1,728.8,10887.2Zm5.6-1a4.712,4.712,0,0,0-3.438-2.8c-3.471-1-5.823.9-7.055,5.5a8.626,8.626,0,0,0-.026,5.5,4.664,4.664,0,0,0,3.369,2.8,4.528,4.528,0,0,0,4.406-.7,8.559,8.559,0,0,0,2.741-4.8A8.645,8.645,0,0,0,734.4,10886.2Zm8.521,0.7-18.152,18.8,3.622,1,18.153-18.8Zm-1.023,13.2a1.321,1.321,0,0,1,1.343-.6c0.965,0.2,1.111,1.6.437,4.1-0.679,2.6-1.5,3.7-2.468,3.5a1.352,1.352,0,0,1-.841-1.3,9.063,9.063,0,0,1,.427-2.9A9.747,9.747,0,0,1,741.9,10900.1Zm5.6-.9a4.829,4.829,0,0,0-3.437-2.9c-3.472-.9-5.823.9-7.055,5.5a8.614,8.614,0,0,0-.023,5.5,4.786,4.786,0,0,0,3.369,2.9,5.1,5.1,0,0,0,4.406-.7c1.207-.9,2.119-2.6,2.737-4.9A8.338,8.338,0,0,0,747.491,10899.2Zm-57.765,10.2a2.873,2.873,0,0,0-1.007-1.2q-0.816-.75-0.982-0.9a0.429,0.429,0,0,1-.113-0.4,0.673,0.673,0,0,1,.25-0.3h0.562a5.065,5.065,0,0,1,1.551.9l0.956-1.3a4.559,4.559,0,0,0-2.051-1,2.425,2.425,0,0,0-2.048,0,1.665,1.665,0,0,0-1.091,1.3,1.913,1.913,0,0,0,.249,1.7q0.26,0.3.852,0.9a6.787,6.787,0,0,1,.8.6c0.1,0.2.159,0.2,0.192,0.3a0.529,0.529,0,0,1,.012.3,0.415,0.415,0,0,1-.293.3,0.722,0.722,0,0,1-.647,0,3.93,3.93,0,0,1-2.009-1.2l-0.445,1.7,0.881,0.6a8.627,8.627,0,0,0,1.13.4,3.981,3.981,0,0,0,1.512.1,2.178,2.178,0,0,0,1.146-.5,2.067,2.067,0,0,0,.631-1.1A1.806,1.806,0,0,0,689.726,10909.4Zm6.61-2.1-1.082,4a1.9,1.9,0,0,1-.545,1,0.95,0.95,0,0,1-.915.1,1.211,1.211,0,0,1-.718-0.5,1.921,1.921,0,0,1,.01-1.2l1.085-4-1.873-.5-1.123,4.2a2.636,2.636,0,0,0,.2,2.2,2.683,2.683,0,0,0,1.974,1.3,2.831,2.831,0,0,0,2.408-.1,3.011,3.011,0,0,0,1.328-1.9l1.113-4.1Zm1.88,7.8,2.683,0.8a2.871,2.871,0,0,0,2.067-.1,1.67,1.67,0,0,0,1.1-1.2,1.559,1.559,0,0,0-.789-2h0.012a1.521,1.521,0,0,0,.925-0.3,2.65,2.65,0,0,0,.562-0.9,1.489,1.489,0,0,0-.333-1.5,3.81,3.81,0,0,0-1.975-1l-2.406-.6Zm3.333-4.9,0.523,0.1c0.585,0.2.825,0.4,0.722,0.8a0.466,0.466,0,0,1-.351.4,0.765,0.765,0,0,1-.664,0l-0.562-.1Zm-0.079,2.7a1.067,1.067,0,0,1,.628.4,0.708,0.708,0,0,1,.091.6c-0.131.5-.488,0.6-1.069,0.5l-0.656-.2,0.388-1.4Zm8.541,1.9a5.038,5.038,0,0,0-1.008-1.2,3.858,3.858,0,0,1-.982-0.9,0.368,0.368,0,0,1-.112-0.4,0.67,0.67,0,0,1,.249-0.3,1.354,1.354,0,0,1,.563.1,3.609,3.609,0,0,1,1.55.9l0.957-1.3a4.809,4.809,0,0,0-2.051-1.1,3.546,3.546,0,0,0-2.049,0,1.837,1.837,0,0,0-1.091,1.3,2.191,2.191,0,0,0-.074.9,1.589,1.589,0,0,0,.323.8,3.2,3.2,0,0,0,.853.9c0.437,0.4.7,0.6,0.8,0.7a0.806,0.806,0,0,1,.193.3,0.238,0.238,0,0,1,.011.2,0.569,0.569,0,0,1-.292.4,1.752,1.752,0,0,1-.647-0.1,4.98,4.98,0,0,1-1.016-.4,4.5,4.5,0,0,1-.994-0.7l-0.444,1.6a2.3,2.3,0,0,0,.881.6,3.211,3.211,0,0,0,1.129.4,2.661,2.661,0,0,0,1.513.1,1.615,1.615,0,0,0,1.146-.5,1.783,1.783,0,0,0,.63-1A2.084,2.084,0,0,0,710.011,10914.8Zm6.085-.6c0.232,0.2.46,0.3,0.683,0.5l0.964-1.3a5.257,5.257,0,0,0-2.007-1.1,4.049,4.049,0,0,0-1.9,0,3.974,3.974,0,0,0-1.5.9,4.748,4.748,0,0,0-.907,1.8,4.023,4.023,0,0,0,.131,2.9,3.389,3.389,0,0,0,2.151,1.5,4.822,4.822,0,0,0,2.055.1l0.422-1.5h-0.945a1.473,1.473,0,0,1-.921-0.1q-1.514-.3-0.981-2.4a2.905,2.905,0,0,1,.775-1.4,1.039,1.039,0,0,1,1.184-.2A2.091,2.091,0,0,1,716.1,10914.2Zm3.479,4,0.79,2.9,2.113,0.5-1.2-3.5a2.023,2.023,0,0,0,1.666-1.5c0.364-1.4-.391-2.3-2.265-2.8l-2.259-.6-1.848,6.9,1.863,0.5,0.673-2.5Zm0.326-3.1,0.368,0.1a0.735,0.735,0,0,1,.767.9,0.822,0.822,0,0,1-1.208.6h-0.349Zm5.3,7.3,1.848-6.9-1.873-.5-1.847,6.9Zm1.026,0.3,2.683,0.7a2.871,2.871,0,0,0,2.067-.1,1.672,1.672,0,0,0,1.1-1.2,1.723,1.723,0,0,0-.012-1.1,1.76,1.76,0,0,0-.778-0.9H731.3a1.521,1.521,0,0,0,.925-0.3,1.957,1.957,0,0,0,.562-0.9,1.489,1.489,0,0,0-.333-1.5,4.748,4.748,0,0,0-1.975-1l-2.406-.6Zm3.332-5,0.524,0.1c0.585,0.2.825,0.4,0.722,0.8a0.836,0.836,0,0,1-.351.5h-0.664l-0.562-.2Zm-0.078,2.7a1.064,1.064,0,0,1,.627.4,0.705,0.705,0,0,1,.092.6c-0.131.5-.488,0.6-1.069,0.5l-0.656-.2,0.388-1.4Zm8.008,3.6-2.231-.6,0.349-1.3,2.066,0.6,0.4-1.5-2.066-.6,0.291-1,2.231,0.6,0.4-1.5-4.094-1.1-1.848,6.9,4.094,1.1Zm-47.22,1.4-0.423-7.5-2.485-.7-4.105,6.4,2.047,0.5,0.7-1.2,2.24,0.6-0.007,1.4Zm-3.475-3.9c0.576-1,.955-1.7,1.137-2,0.182-.4.308-0.6,0.38-0.8q-0.022.3-.035,0.9c-0.008.5-.011,0.8-0.009,1.1l-0.006,1.2Zm12.381-1.1-1.66-.4-0.835,3.1c-0.113.4-.241,1-0.383,1.7H696.27l-1.225-5.5-2.434-.6-1.848,6.9,1.651,0.4,0.833-3.1q0.162-.6.379-1.8h0.042l1.217,5.6,2.444,0.6Zm5.885,2.5a3.819,3.819,0,0,0-2.336-1.5l-2.387-.7-1.847,6.9,2.231,0.6a3.616,3.616,0,0,0,2.922-.2,3.44,3.44,0,0,0,1.663-2.4A3.354,3.354,0,0,0,705.061,10922.9Zm-2.506,3.7a1.6,1.6,0,0,1-1.377.1l-0.415-.1,1.035-3.8,0.543,0.1a1.329,1.329,0,0,1,1.016.8,2.2,2.2,0,0,1,0,1.5A2.944,2.944,0,0,1,702.555,10926.6Zm10.629,1.5a2.876,2.876,0,0,0-1.008-1.2,3.858,3.858,0,0,1-.982-0.9,0.429,0.429,0,0,1-.113-0.4,0.673,0.673,0,0,1,.25-0.3h0.562a8.562,8.562,0,0,1,1.551.9l0.956-1.3a5.908,5.908,0,0,0-2.051-1,2.868,2.868,0,0,0-2.048,0,1.665,1.665,0,0,0-1.091,1.3,2.075,2.075,0,0,0-.074.9,1.589,1.589,0,0,0,.323.8,5.5,5.5,0,0,0,.852.9,4.657,4.657,0,0,1,.8.7,0.943,0.943,0,0,0,.193.2,0.538,0.538,0,0,1,.011.3,0.3,0.3,0,0,1-.293.3,0.722,0.722,0,0,1-.647,0,3.93,3.93,0,0,1-2.009-1.2l-0.445,1.7a2.308,2.308,0,0,0,.881.6,3.217,3.217,0,0,0,1.13.4,2.657,2.657,0,0,0,1.512.1,2.175,2.175,0,0,0,1.146-.5,2.067,2.067,0,0,0,.631-1.1A1.805,1.805,0,0,0,713.184,10928.1Zm7.03,5.4-0.423-7.6-2.486-.6-4.1,6.3,2.047,0.5,0.7-1.2,2.24,0.6-0.007,1.4Zm-3.475-4c0.576-1,.955-1.7,1.137-2,0.181-.4.308-0.6,0.379-0.8q-0.022.3-.034,0.9c-0.008.5-.011,0.8-0.009,1.1l-0.006,1.2Zm7.789,1.5c-0.1.2-.229,0.4-0.383,0.7s-0.272.6-.353,0.8a11.209,11.209,0,0,0,.114-1.7l0-3.7-2.1-.6,0.4,7.5,2.194,0.6,4.106-6.3-2.084-.6Zm7.441,4-2.231-.6,0.349-1.3,2.066,0.5,0.4-1.5-2.066-.5,0.29-1.1,2.231,0.6,0.4-1.5-4.094-1.1-1.847,6.9,4.093,1.1Z" transform="translate(-663 -10855)"/>
</svg>
