<svg id="Группа_9_копия" data-name="Группа 9 копия" xmlns="http://www.w3.org/2000/svg" width="100" height="100" viewBox="0 0 100 100">
  <metadata><?xpacket begin="﻿" id="W5M0MpCehiHzreSzNTczkc9d"?>
<x:xmpmeta xmlns:x="adobe:ns:meta/" x:xmptk="Adobe XMP Core 5.6-c142 79.160924, 2017/07/13-01:06:39        ">
   <rdf:RDF xmlns:rdf="http://www.w3.org/1999/02/22-rdf-syntax-ns#">
      <rdf:Description rdf:about=""/>
   </rdf:RDF>
</x:xmpmeta>
                                                                                                    
                                                                                                    
                                                                                                    
                                                                                                    
                                                                                                    
                                                                                                    
                                                                                                    
                                                                                                    
                                                                                                    
                                                                                                    
                                                                                                    
                                                                                                    
                                                                                                    
                                                                                                    
                                                                                                    
                                                                                                    
                                                                                                    
                                                                                                    
                                                                                                    
                                                                                                    
                           
<?xpacket end="w"?></metadata>
<defs>
    <style>
      .cls-1 {
        fill: #9287fb;
      }

      .cls-2 {
        fill: #fff;
        fill-rule: evenodd;
      }
    </style>
  </defs>
  <circle id="Эллипс_3" data-name="Эллипс 3" class="cls-1" cx="50" cy="50" r="50"/>
  <path id="BUY_6_save_41_копия" data-name="BUY 6, save 41% копия" class="cls-2" d="M1360.03,10146.7l2.68,0.7a3.618,3.618,0,0,0,2.07,0,2.03,2.03,0,0,0,1.1-1.3,1.713,1.713,0,0,0-.01-1.1,1.58,1.58,0,0,0-.78-0.8l0.02-.1a1.513,1.513,0,0,0,.92-0.3,1.541,1.541,0,0,0,.56-0.9,1.484,1.484,0,0,0-.33-1.5,4.753,4.753,0,0,0-1.98-1l-2.4-.6Zm3.33-5,0.53,0.1c0.58,0.2.82,0.5,0.72,0.8a0.636,0.636,0,0,1-.35.5,0.779,0.779,0,0,1-.67,0l-0.56-.2Zm-0.08,2.8a0.984,0.984,0,0,1,.63.3,0.657,0.657,0,0,1,.09.6,0.715,0.715,0,0,1-1.07.5l-0.65-.2,0.39-1.4Zm9.36-1.8-1.08,4a1.946,1.946,0,0,1-.55,1,0.94,0.94,0,0,1-.91.1,1.2,1.2,0,0,1-.72-0.5,1.95,1.95,0,0,1,.01-1.2l1.08-4-1.87-.5-1.12,4.2a2.911,2.911,0,0,0,.2,2.3,3.4,3.4,0,0,0,1.97,1.3,3.213,3.213,0,0,0,2.41-.2,2.988,2.988,0,0,0,1.33-1.9l1.11-4.1Zm5.01,1.3-2.03-.5,1.13,4.8-0.71,2.7,1.88,0.5,0.72-2.7,3.4-3.6-2.02-.6-1.88,2.3Zm6.99,8.5a2.307,2.307,0,0,0,1.7,1.3,2.627,2.627,0,0,0,1.97-.1,2.872,2.872,0,0,0,1.12-1.7,2.6,2.6,0,0,0-.07-1.8,1.8,1.8,0,0,0-1.27-.9,1.339,1.339,0,0,0-1.57.4h-0.06a1.927,1.927,0,0,1,.86-1.2,2.421,2.421,0,0,1,1.5-.1c0.37,0.1.7,0.3,1,.4l0.39-1.4a5.832,5.832,0,0,0-.96-0.4,5.086,5.086,0,0,0-2.1-.1,2.772,2.772,0,0,0-1.57,1,6.094,6.094,0,0,0-1.04,2.2A3.349,3.349,0,0,0,1384.64,10152.5Zm1.62-.6a1.352,1.352,0,0,1,0-.8,1.273,1.273,0,0,1,.35-0.5,0.6,0.6,0,0,1,.58,0c0.43,0.1.57,0.4,0.42,1a0.98,0.98,0,0,1-.38.6,0.389,0.389,0,0,1-.54.1A0.532,0.532,0,0,1,1386.26,10151.9Zm4.08,1.4q-0.18.45-.54,1.2c-0.23.5-.45,1-0.66,1.4l1.31,0.4a15.49,15.49,0,0,0,1.54-2.5l-0.03-.1Zm10.46,0.8a5.055,5.055,0,0,0-1-1.2,3.8,3.8,0,0,1-.99-0.9,0.364,0.364,0,0,1-.11-0.4,0.667,0.667,0,0,1,.25-0.3,1.342,1.342,0,0,1,.56.1,4.5,4.5,0,0,1,1.55.8l0.96-1.2a4.8,4.8,0,0,0-2.05-1.1,3.549,3.549,0,0,0-2.05,0,1.829,1.829,0,0,0-1.09,1.3,2.068,2.068,0,0,0-.07.9,1.6,1.6,0,0,0,.32.8,3.2,3.2,0,0,0,.85.9,4.765,4.765,0,0,1,.8.7,0.718,0.718,0,0,1,.19.3c0.04,0,.04.1,0.01,0.2a0.3,0.3,0,0,1-.29.3,0.727,0.727,0,0,1-.65,0,5.029,5.029,0,0,1-1.01-.4c-0.36-.2-0.69-0.5-1-0.7l-0.44,1.6a2.305,2.305,0,0,0,.88.6,3.254,3.254,0,0,0,1.13.4,2.654,2.654,0,0,0,1.51.1,1.628,1.628,0,0,0,1.15-.5,2.134,2.134,0,0,0,.63-1A2.112,2.112,0,0,0,1400.8,10154.1Zm7.03,5.4-0.42-7.5-2.48-.7-4.11,6.3,2.05,0.6,0.69-1.2,2.24,0.6v1.3Zm-3.47-4c0.57-1,.95-1.6,1.14-2,0.18-.3.3-0.6,0.38-0.7a8.679,8.679,0,0,0-.04.9c-0.01.4-.01,0.7-0.01,1v1.2Zm7.79,1.5a7.6,7.6,0,0,0-.39.8c-0.15.3-.27,0.5-0.35,0.7a10.993,10.993,0,0,0,.12-1.7l-0.01-3.7-2.09-.6,0.4,7.5,2.19,0.6,4.11-6.3-2.08-.5Zm7.44,4-2.23-.6,0.35-1.3,2.06,0.6,0.4-1.5-2.06-.6,0.29-1.1,2.23,0.6,0.4-1.5-4.09-1.1-1.85,6.9,4.09,1.1Zm-51.45,12.2-2.66-.7,3.72-13.9-4.3-1.1-13.5,11.6-0.86,3.3,9.41,2.5-1.22,4.6,4.56,1.2,1.22-4.6,2.66,0.7Zm-12.53-3.4,5.68-5a15.034,15.034,0,0,0,1.99-2h0.12c-0.08.2-.3,0.9-0.67,2-0.37,1.2-.64,2.1-0.8,2.7l-1.01,3.8Zm30.01-6.8-3.83-1-8.63,3.7,1.5,3.5,3.08-1.4c0.37-.2,1.04-0.5,2.02-1.1l-0.69,2.3-0.6,2.1-3.42,12.7,4.66,1.3Zm9.48,6.6a1.063,1.063,0,0,1,1.34-.6c0.97,0.2,1.11,1.6.44,4.1-0.68,2.6-1.5,3.7-2.47,3.4a1.136,1.136,0,0,1-.84-1.2,9.361,9.361,0,0,1,.43-3A8.95,8.95,0,0,1,1395.1,10169.6Zm5.59-1a4.7,4.7,0,0,0-3.43-2.8c-3.48-.9-5.83.9-7.06,5.5a8.7,8.7,0,0,0-.03,5.5,4.468,4.468,0,0,0,3.37,2.8,4.792,4.792,0,0,0,4.41-.6,9.244,9.244,0,0,0,2.74-4.9A8.693,8.693,0,0,0,1400.69,10168.6Zm8.52,0.7-18.15,18.8,3.62,1,18.16-18.8Zm-1.02,13.2a1.318,1.318,0,0,1,1.34-.6q1.455,0.45.44,4.2c-0.68,2.5-1.5,3.6-2.47,3.4a1.221,1.221,0,0,1-.84-1.2,9.656,9.656,0,0,1,.43-3A9.784,9.784,0,0,1,1408.19,10182.5Zm5.6-.9a4.851,4.851,0,0,0-3.44-2.9c-3.47-.9-5.82,1-7.06,5.6a8.64,8.64,0,0,0-.02,5.5,4.9,4.9,0,0,0,3.37,2.8,4.8,4.8,0,0,0,4.41-.7A10.814,10.814,0,0,0,1413.79,10181.6Z" transform="translate(-1335 -10116)"/>
</svg>
