<svg id="Группа_9" data-name="Группа 9" xmlns="http://www.w3.org/2000/svg" width="100" height="100" viewBox="0 0 100 100">
  <metadata><?xpacket begin="﻿" id="W5M0MpCehiHzreSzNTczkc9d"?>
<x:xmpmeta xmlns:x="adobe:ns:meta/" x:xmptk="Adobe XMP Core 5.6-c142 79.160924, 2017/07/13-01:06:39        ">
   <rdf:RDF xmlns:rdf="http://www.w3.org/1999/02/22-rdf-syntax-ns#">
      <rdf:Description rdf:about=""/>
   </rdf:RDF>
</x:xmpmeta>
                                                                                                    
                                                                                                    
                                                                                                    
                                                                                                    
                                                                                                    
                                                                                                    
                                                                                                    
                                                                                                    
                                                                                                    
                                                                                                    
                                                                                                    
                                                                                                    
                                                                                                    
                                                                                                    
                                                                                                    
                                                                                                    
                                                                                                    
                                                                                                    
                                                                                                    
                                                                                                    
                           
<?xpacket end="w"?></metadata>
<defs>
    <style>
      .cls-1 {
        fill: #9287fb;
      }

      .cls-2 {
        fill: #fff;
        fill-rule: evenodd;
      }
    </style>
  </defs>
  <circle id="Эллипс_3" data-name="Эллипс 3" class="cls-1" cx="50" cy="50" r="50"/>
  <path id="BUY_3_save_27_копия" data-name="BUY 3, save 27% копия" class="cls-2" d="M969.042,10146.6l2.683,0.7a3.608,3.608,0,0,0,2.067,0,1.821,1.821,0,0,0,1.1-1.3,1.753,1.753,0,0,0-.012-1.1,1.59,1.59,0,0,0-.777-0.8l0.012-.1a1.521,1.521,0,0,0,.925-0.3,1.553,1.553,0,0,0,.562-0.9,1.489,1.489,0,0,0-.333-1.5,4.748,4.748,0,0,0-1.975-1l-2.406-.6Zm3.333-5,0.523,0.1q0.877,0.3.722,0.9a0.639,0.639,0,0,1-.351.4,0.765,0.765,0,0,1-.664,0l-0.562-.2Zm-0.079,2.8a2.119,2.119,0,0,1,.628.3,0.767,0.767,0,0,1-.978,1.1l-0.656-.1,0.388-1.5Zm9.354-1.8-1.081,4a1.561,1.561,0,0,1-.545,1,0.95,0.95,0,0,1-.915.1,0.914,0.914,0,0,1-.719-0.5,1.929,1.929,0,0,1,.011-1.2l1.085-4-1.873-.5-1.123,4.2a2.873,2.873,0,0,0,.2,2.3,3.391,3.391,0,0,0,1.973,1.3,3.217,3.217,0,0,0,2.409-.2,2.77,2.77,0,0,0,1.328-1.9l1.112-4.1Zm5.011,1.3-2.028-.5,1.128,4.8-0.707,2.7,1.877,0.5,0.722-2.7,3.394-3.6-2.018-.5-1.874,2.2Zm12,3.6a3.016,3.016,0,0,0-1.565-.9,7.221,7.221,0,0,0-1.356-.2,3,3,0,0,0-1.265.3l0.44,1.4a2.581,2.581,0,0,1,1.487-.1,2.051,2.051,0,0,1,.528.3,0.508,0.508,0,0,1,.1.5q-0.194.75-1.614,0.3l-0.434-.1-0.375,1.4,0.424,0.1a5.137,5.137,0,0,1,.828.3,1.177,1.177,0,0,1,.41.4,0.672,0.672,0,0,1,.029.5,0.5,0.5,0,0,1-.425.4,1.478,1.478,0,0,1-.94,0,3.688,3.688,0,0,1-.836-0.4,1.959,1.959,0,0,1-.83-0.6l-0.415,1.6a5.081,5.081,0,0,0,.948.5,3.338,3.338,0,0,0,1.009.4,4.3,4.3,0,0,0,2.263,0,1.834,1.834,0,0,0,1.168-1.3q0.378-1.35-1.289-2.1h0.007a1.892,1.892,0,0,0,1.311-.4,1.679,1.679,0,0,0,.686-1A1.337,1.337,0,0,0,998.657,10147.5Zm0.7,5.7q-0.182.45-.538,1.2a13.493,13.493,0,0,1-.667,1.4l1.316,0.4a19.11,19.11,0,0,0,1.535-2.4l-0.03-.2Zm10.456,0.8a4.816,4.816,0,0,0-1-1.2c-0.55-.4-0.87-0.7-0.99-0.8a0.663,0.663,0,0,1-.11-0.5,0.28,0.28,0,0,1,.25-0.2,0.55,0.55,0,0,1,.56,0,3.652,3.652,0,0,1,1.56.9l0.95-1.3a6.213,6.213,0,0,0-2.05-1.1,3.549,3.549,0,0,0-2.05,0,2.044,2.044,0,0,0-1.09,1.3,2.331,2.331,0,0,0-.07.9,1.6,1.6,0,0,0,.32.8,3.2,3.2,0,0,0,.85.9c0.44,0.4.71,0.6,0.8,0.7a0.718,0.718,0,0,1,.19.3,0.241,0.241,0,0,1,.02.2,0.591,0.591,0,0,1-.3.4,1.716,1.716,0,0,1-.64-0.1,2.306,2.306,0,0,1-1.02-.4,4.236,4.236,0,0,1-.99-0.7l-0.45,1.6a2.305,2.305,0,0,0,.88.6,3.254,3.254,0,0,0,1.13.4,4.2,4.2,0,0,0,1.51.2,2.318,2.318,0,0,0,1.15-.6,1.737,1.737,0,0,0,.63-1A2.041,2.041,0,0,0,1009.81,10154Zm7.03,5.4-0.42-7.5-2.48-.7-4.11,6.3,2.05,0.6,0.69-1.2,2.24,0.6v1.4Zm-3.47-4c0.58-1,.95-1.6,1.14-2,0.18-.3.31-0.6,0.38-0.7-0.02.2-.03,0.5-0.04,0.9s-0.01.8-.01,1v1.2Zm7.79,1.5c-0.1.2-.23,0.5-0.38,0.8a3.527,3.527,0,0,0-.36.8,12.51,12.51,0,0,0,.12-1.8l-0.01-3.7-2.09-.6,0.4,7.5,2.2,0.6,4.1-6.3-2.08-.5Zm7.44,4-2.23-.6,0.35-1.3,2.06,0.6,0.4-1.5-2.06-.6,0.29-1.1,2.23,0.6,0.4-1.5-4.09-1-1.85,6.8,4.09,1.1Zm-53.093,16.3-9.614-2.5,0.056-.2,3.553-1.9q3.534-1.95,5.034-3a10.477,10.477,0,0,0,2.394-2.3,7.979,7.979,0,0,0,1.3-2.7,5.643,5.643,0,0,0-.042-3.3,5.986,5.986,0,0,0-1.894-2.8,7.7,7.7,0,0,0-3.45-1.7,9.763,9.763,0,0,0-5.5-.2,13.492,13.492,0,0,0-3.228,1.2l1.731,3.7a14.022,14.022,0,0,1,2.969-1,4.759,4.759,0,0,1,2.648.1,3.067,3.067,0,0,1,1.781,1.1,2.67,2.67,0,0,1,.2,2.2,4.6,4.6,0,0,1-.793,1.6,7.407,7.407,0,0,1-1.57,1.5,42.041,42.041,0,0,1-4.151,2.7l-7.039,4.1-0.87,3.2,15.425,4.2Zm8.761,6.6,13.466-16.9,0.785-2.9-15.832-4.2-1.052,3.9,10.882,2.9-13.139,15.9Zm19.842-14.3a1.063,1.063,0,0,1,1.34-.6c0.97,0.2,1.11,1.6.44,4.1-0.68,2.6-1.5,3.7-2.47,3.4a1.136,1.136,0,0,1-.84-1.2,8.515,8.515,0,0,1,.43-2.9A9.784,9.784,0,0,1,1004.11,10169.5Zm5.59-1a4.923,4.923,0,0,0-3.43-2.8c-3.47-.9-5.83.9-7.058,5.5a8.6,8.6,0,0,0-.027,5.5,4.78,4.78,0,0,0,3.365,2.9,5.111,5.111,0,0,0,4.41-.7c1.21-.9,2.12-2.6,2.74-4.9A8.623,8.623,0,0,0,1009.7,10168.5Zm8.53,0.8-18.16,18.7,3.63,1,18.15-18.8Zm-1.03,13.2a1.249,1.249,0,0,1,1.34-.7q1.455,0.45.44,4.2c-0.68,2.5-1.5,3.7-2.47,3.4a1.136,1.136,0,0,1-.84-1.2,9.971,9.971,0,0,1,.43-3A7.928,7.928,0,0,1,1017.2,10182.5Zm5.6-1a4.713,4.713,0,0,0-3.44-2.8c-3.47-1-5.82.9-7.06,5.5a8.71,8.71,0,0,0-.02,5.5,4.673,4.673,0,0,0,3.37,2.8,4.8,4.8,0,0,0,4.41-.7A10.814,10.814,0,0,0,1022.8,10181.5Z" transform="translate(-944 -10116)"/>
</svg>
