<?xml version="1.0" encoding="utf-8"?>
<!-- Generator: Adobe Illustrator 22.0.0, SVG Export Plug-In . SVG Version: 6.00 Build 0)  -->
<svg version="1.1" id="Слой_1" xmlns="http://www.w3.org/2000/svg" xmlns:xlink="http://www.w3.org/1999/xlink" x="0px" y="0px"
	 viewBox="0 0 37.9 36" style="enable-background:new 0 0 37.9 36;" xml:space="preserve">
<style type="text/css">
	.st0{fill:#D0D0D0;}
</style>
<g>
	<path class="st0" d="M3.3,18.9c0,0.5-0.4,0.8-0.8,0.8H0.9c-0.5,0-0.8-0.4-0.8-0.8c0-0.5,0.4-0.8,0.8-0.8h1.5
		C3,18.1,3.3,18.5,3.3,18.9L3.3,18.9z M11.4,26.3c0,0.2,0.1,0.5,0.2,0.6c0.2,0.2,0.4,0.3,0.6,0.3h1.6c0.5,0,0.8-0.4,0.8-0.8
		c0-0.5-0.4-0.8-0.8-0.8h-0.6c0.7-2.1,2.9-3.9,5.8-4.6c3,0.7,5.2,2.5,5.8,4.6h-0.6c-0.5,0-0.8,0.4-0.8,0.8c0,0.5,0.4,0.8,0.8,0.8
		h1.6c0.2,0,0.5-0.1,0.6-0.3c0.2-0.2,0.2-0.4,0.2-0.6c-0.1-1.7-1-3.2-2.4-4.5c-1.3-1.2-3.1-2.1-5.1-2.6c-0.1,0-0.3,0-0.4,0
		c-2,0.5-3.8,1.4-5.1,2.6C12.4,23.1,11.5,24.7,11.4,26.3L11.4,26.3z M30.8,8.1c0.2,0,0.4-0.1,0.6-0.2l1.1-1.1c0.3-0.3,0.3-0.9,0-1.2
		c-0.3-0.3-0.9-0.3-1.2,0l-1.1,1.1c-0.3,0.3-0.3,0.9,0,1.2C30.3,8,30.5,8.1,30.8,8.1L30.8,8.1z M19,3.2c0.5,0,0.8-0.4,0.8-0.8V0.8
		C19.9,0.3,19.5,0,19,0c-0.5,0-0.8,0.4-0.8,0.8v1.5C18.2,2.8,18.6,3.2,19,3.2L19,3.2z M6.7,7.8C6.9,8,7.1,8.1,7.3,8.1
		c0.2,0,0.4-0.1,0.6-0.2c0.3-0.3,0.3-0.9,0-1.2L6.8,5.5C6.5,5.2,6,5.2,5.6,5.5c-0.3,0.3-0.3,0.9,0,1.2L6.7,7.8z M17.1,32.7
		c-0.5,0-0.8,0.4-0.8,0.8v0.8h-6.1c-1.1,0-2-0.9-2-2c0-1.1,0.9-2,2-2h6c0.5,0,0.8-0.4,0.8-0.8c0-0.5-0.4-0.8-0.8-0.8h-6
		c-2,0-3.7,1.7-3.7,3.7c0,2,1.7,3.7,3.7,3.7h6.9c0.5,0,0.8-0.4,0.8-0.8v-1.6C18,33.1,17.6,32.7,17.1,32.7L17.1,32.7z M37.2,18.1
		h-1.5c-0.5,0-0.8,0.4-0.8,0.8c0,0.5,0.4,0.8,0.8,0.8h1.5c0.5,0,0.8-0.4,0.8-0.8C38,18.5,37.6,18.1,37.2,18.1L37.2,18.1z M19,5.3
		c-7.6,0-13.8,6.2-13.8,13.8c0,2.7,0.8,5.2,2.2,7.5C7.6,26.9,7.8,27,8.1,27c0.2,0,0.3,0,0.5-0.1c0.4-0.3,0.5-0.8,0.3-1.2
		c-1.3-2-1.9-4.2-1.9-6.5C6.9,12.4,12.4,7,19,7c6.7,0,12.1,5.4,12.1,12.1c0,2.3-0.7,4.6-1.9,6.5c-0.3,0.4-0.1,0.9,0.3,1.2
		c0.4,0.3,0.9,0.1,1.2-0.3c1.4-2.2,2.2-4.8,2.2-7.5C32.9,11.5,26.7,5.3,19,5.3L19,5.3z M18.8,17.5C17.1,17,16,15.4,16,13.6
		c0-1.8,1.2-3.4,2.9-3.9c0.2-0.1,0.3-0.1,0.5,0c1.7,0.5,2.9,2.1,2.9,3.9c0,1.8-1.2,3.4-2.9,3.9c-0.1,0-0.2,0-0.3,0
		C19,17.6,18.9,17.6,18.8,17.5L18.8,17.5z M19.1,15.8c0.9-0.4,1.4-1.2,1.4-2.2c0-1-0.6-1.8-1.4-2.2c-0.9,0.4-1.4,1.2-1.4,2.2
		C17.6,14.6,18.2,15.4,19.1,15.8L19.1,15.8z M28,28.7h-6c-0.5,0-0.8,0.4-0.8,0.8c0,0.5,0.4,0.8,0.8,0.8h6c1.1,0,2,0.9,2,2
		c0,1.1-0.9,2-2,2h-6.1v-0.8c0-0.5-0.4-0.8-0.8-0.8c-0.5,0-0.8,0.4-0.8,0.8v1.6c0,0.5,0.4,0.8,0.8,0.8H28c2,0,3.7-1.7,3.7-3.7
		C31.7,30.3,30,28.7,28,28.7L28,28.7z M19.1,22.7c-0.5,0-0.8,0.4-0.8,0.8v6c0,0.5,0.4,0.8,0.8,0.8c0.5,0,0.8-0.4,0.8-0.8v-6
		C19.9,23.1,19.5,22.7,19.1,22.7L19.1,22.7z M19.1,22.7"/>
</g>
</svg>
