<?xml version="1.0" encoding="utf-8"?>
<!-- Generator: Adobe Illustrator 22.0.0, SVG Export Plug-In . SVG Version: 6.00 Build 0)  -->
<svg version="1.1" id="Слой_1" xmlns="http://www.w3.org/2000/svg" xmlns:xlink="http://www.w3.org/1999/xlink" x="0px" y="0px"
	 viewBox="0 0 42.8 29.9" style="enable-background:new 0 0 42.8 29.9;" xml:space="preserve">
<style type="text/css">
	.st0{fill:#D0D0D0;}
</style>
<g>
	<path class="st0" d="M2.4,28.1c-0.2,0-0.4,0.1-0.6,0.2c-0.2,0.2-0.2,0.4-0.2,0.6c0,0.2,0.1,0.4,0.2,0.6c0.2,0.2,0.4,0.2,0.6,0.2
		c0.2,0,0.4-0.1,0.6-0.2c0.2-0.2,0.2-0.4,0.2-0.6c0-0.2-0.1-0.4-0.2-0.6C2.9,28.2,2.7,28.1,2.4,28.1L2.4,28.1z M2.4,28.1"/>
	<path class="st0" d="M21.4,1.7c0.5,0,0.8-0.4,0.8-0.8c0-0.5-0.4-0.8-0.8-0.8c-0.5,0-0.8,0.4-0.8,0.8C20.6,1.3,20.9,1.7,21.4,1.7
		L21.4,1.7z M21.4,1.7"/>
	<path class="st0" d="M9,5.9c0.2,0,0.4-0.1,0.5-0.2C9.9,5.4,10,4.9,9.7,4.5C9.4,4.2,8.9,4.1,8.5,4.4C8.2,4.6,8.1,5.2,8.4,5.5
		C8.5,5.7,8.8,5.9,9,5.9L9,5.9z M9,5.9"/>
	<path class="st0" d="M38.3,10.7c0.2,0,0.3,0,0.5-0.1c0.4-0.3,0.5-0.8,0.2-1.1c-0.3-0.4-0.8-0.5-1.1-0.2c-0.4,0.3-0.5,0.8-0.2,1.1
		C37.8,10.5,38.1,10.7,38.3,10.7L38.3,10.7z M38.3,10.7"/>
	<path class="st0" d="M33.3,5.7c0.1,0.1,0.3,0.2,0.5,0.2c0.2,0,0.5-0.1,0.7-0.3c0.3-0.4,0.2-0.9-0.2-1.2c-0.4-0.3-0.9-0.2-1.2,0.2
		C32.9,4.9,32.9,5.4,33.3,5.7L33.3,5.7z M33.3,5.7"/>
	<path class="st0" d="M40.3,16.1c0.1,0.4,0.4,0.6,0.8,0.6c0.1,0,0.1,0,0.2,0c0.4-0.1,0.7-0.6,0.6-1c-0.1-0.4-0.6-0.7-1-0.6
		C40.5,15.2,40.2,15.6,40.3,16.1L40.3,16.1z M40.3,16.1"/>
	<path class="st0" d="M27.7,2.7L27.7,2.7c0.1,0,0.2,0,0.3,0c0.3,0,0.7-0.2,0.8-0.6c0.1-0.4-0.1-0.9-0.5-1c-0.4-0.1-0.9,0.1-1,0.5
		C27,2.1,27.2,2.5,27.7,2.7L27.7,2.7z M27.7,2.7"/>
	<path class="st0" d="M14.9,2.7c0.1,0,0.2,0,0.3,0c0.4-0.1,0.7-0.6,0.5-1c-0.1-0.4-0.6-0.7-1-0.5c-0.4,0.1-0.7,0.6-0.5,1
		C14.2,2.5,14.5,2.7,14.9,2.7L14.9,2.7z M14.9,2.7"/>
	<g>
		<path class="st0" d="M41.9,21.6c-0.5,0-0.8,0.3-0.9,0.8c0,0.5,0.3,0.8,0.8,0.9c0,0,0,0,0,0c0.4,0,0.8-0.3,0.8-0.8
			C42.7,22,42.3,21.6,41.9,21.6L41.9,21.6z M41.9,21.6"/>
		<path class="st0" d="M1.8,22.4c0-0.5-0.4-0.8-0.9-0.8c-0.5,0-0.8,0.4-0.8,0.9c0,0.4,0.4,0.8,0.8,0.8c0,0,0,0,0,0
			C1.5,23.2,1.9,22.9,1.8,22.4L1.8,22.4z M1.8,22.4"/>
	</g>
	<path class="st0" d="M1.5,16.7c0.1,0,0.1,0,0.2,0c0.4,0,0.7-0.2,0.8-0.6c0.1-0.4-0.1-0.9-0.6-1c-0.4-0.1-0.9,0.1-1,0.6
		C0.8,16.1,1,16.5,1.5,16.7L1.5,16.7z M1.5,16.7"/>
	<path class="st0" d="M4,10.5c0.1,0.1,0.3,0.1,0.5,0.1c0.3,0,0.5-0.1,0.7-0.4c0.3-0.4,0.2-0.9-0.2-1.1C4.6,8.9,4,9,3.8,9.4
		C3.5,9.8,3.6,10.3,4,10.5L4,10.5z M4,10.5"/>
	<path class="st0" d="M40.4,28.1c-0.2,0-0.4,0.1-0.6,0.2c-0.2,0.2-0.2,0.4-0.2,0.6c0,0.2,0.1,0.4,0.2,0.6c0.2,0.2,0.4,0.2,0.6,0.2
		c0.2,0,0.4-0.1,0.6-0.2c0.2-0.2,0.2-0.4,0.2-0.6c0-0.2-0.1-0.4-0.2-0.6C40.8,28.2,40.6,28.1,40.4,28.1L40.4,28.1z M40.4,28.1"/>
	<path class="st0" d="M21.4,3.3c-9.9,0-18,8.1-18,18c0,2.3,0.4,4.6,1.3,6.7c0.1,0.3,0.4,0.5,0.8,0.5h7.8c0.3,0,0.6-0.2,0.7-0.5
		c0.1-0.3,0.1-0.6-0.1-0.9c-1.3-1.7-2-3.7-2-5.9c0-5.2,4.3-9.5,9.5-9.5c5.2,0,9.5,4.3,9.5,9.5c0,2.2-0.7,4.2-2,5.9
		c-0.2,0.2-0.2,0.6-0.1,0.9c0.1,0.3,0.4,0.5,0.7,0.5h7.8c0.3,0,0.6-0.2,0.8-0.5c0.9-2.1,1.3-4.4,1.3-6.7
		C39.4,11.4,31.3,3.3,21.4,3.3L21.4,3.3z M6.1,26.9c-0.5-1.5-0.9-3.1-1-4.7h5.2c0.1,1.7,0.6,3.3,1.5,4.7H6.1z M10.3,20.5H5.1
		c0.2-3.9,1.7-7.4,4.2-10.1l3.7,3.7C11.4,15.8,10.5,18,10.3,20.5L10.3,20.5z M20.6,10.2c-2.5,0.2-4.7,1.2-6.5,2.7l-3.7-3.7
		c2.7-2.5,6.2-4,10.1-4.2V10.2z M22.2,10.2V5c3.9,0.2,7.4,1.8,10.1,4.2l-3.7,3.7C27,11.3,24.7,10.3,22.2,10.2L22.2,10.2z M36.8,26.9
		h-5.7c0.8-1.4,1.3-3,1.5-4.7h5.2C37.6,23.8,37.3,25.3,36.8,26.9L36.8,26.9z M32.5,20.5c-0.2-2.5-1.1-4.7-2.7-6.5l3.7-3.7
		c2.4,2.7,4,6.2,4.2,10.1H32.5z M32.5,20.5"/>
	<path class="st0" d="M29.9,21.3c0-0.5-0.4-0.8-0.8-0.8l-4,0c0-0.1-0.1-0.3-0.1-0.4c-0.7-1.7-2.7-2.6-4.4-1.9
		c-1.7,0.7-2.6,2.7-1.9,4.4c0.7,1.7,2.7,2.6,4.4,1.9c1.1-0.4,1.8-1.3,2.1-2.3l4,0C29.5,22.1,29.9,21.8,29.9,21.3L29.9,21.3z
		 M20.1,21.9c-0.4-0.9,0.1-1.9,1-2.3c0.9-0.4,1.9,0.1,2.3,1c0.4,0.9-0.1,1.9-1,2.3C21.5,23.3,20.5,22.8,20.1,21.9L20.1,21.9z
		 M20.1,21.9"/>
</g>
</svg>
