<svg xmlns="http://www.w3.org/2000/svg" width="31.906" height="32" viewBox="0 0 31.906 32">
  <metadata><?xpacket begin="﻿" id="W5M0MpCehiHzreSzNTczkc9d"?>
<x:xmpmeta xmlns:x="adobe:ns:meta/" x:xmptk="Adobe XMP Core 5.6-c142 79.160924, 2017/07/13-01:06:39        ">
   <rdf:RDF xmlns:rdf="http://www.w3.org/1999/02/22-rdf-syntax-ns#">
      <rdf:Description rdf:about=""/>
   </rdf:RDF>
</x:xmpmeta>
                                                                                                    
                                                                                                    
                                                                                                    
                                                                                                    
                                                                                                    
                                                                                                    
                                                                                                    
                                                                                                    
                                                                                                    
                                                                                                    
                                                                                                    
                                                                                                    
                                                                                                    
                                                                                                    
                                                                                                    
                                                                                                    
                                                                                                    
                                                                                                    
                                                                                                    
                                                                                                    
                           
<?xpacket end="w"?></metadata>
<defs>
    <style>
      .cls-1 {
        fill: #d0d0d0;
        fill-rule: evenodd;
      }
    </style>
  </defs>
  <path id="Фигура_2" data-name="Фигура 2" class="cls-1" d="M545.375,666.106v-0.012l0.117-6.392a0.749,0.749,0,0,0-.538-0.745l-7.025-1.932h0l-0.006,0-0.007,0a0.468,0.468,0,0,0-.083-0.016l-0.026,0h-0.02a0.473,0.473,0,0,0-.065,0H537.71a0.857,0.857,0,0,0-.09.009,0.086,0.086,0,0,1-.027,0c-0.025.007-.05,0.013-0.075,0.021l-0.013,0-9.118,3.219-3.785.479a0.716,0.716,0,0,0-.4.189l-10.162,9.6a0.769,0.769,0,0,0-.235.628l0.363,4.111-0.592,8.6a0.065,0.065,0,0,0,0,.014,0.626,0.626,0,0,0,0,.075c0,0.007,0,.016,0,0.024a0.691,0.691,0,0,0,.011.09l0,0.011a0.637,0.637,0,0,0,.021.078,0.142,0.142,0,0,0,.007.022,0.7,0.7,0,0,0,.031.075,0.03,0.03,0,0,0,0,.01,0.752,0.752,0,0,0,.045.078,0.14,0.14,0,0,0,.013.018c0.013,0.019.027,0.038,0.041,0.055a0.219,0.219,0,0,0,.02.022l0.012,0.015,0.04,0.037,0.012,0.012a0.529,0.529,0,0,0,.073.054l0,0.006,6.672,4.321,0.012,0.007c0.022,0.013.043,0.025,0.066,0.036l0.018,0.008a0.537,0.537,0,0,0,.084.032l0.013,0c0.025,0.007.05,0.012,0.075,0.017l0.024,0a0.618,0.618,0,0,0,.085.006h0a0.486,0.486,0,0,0,.066,0l9.146-.868h0c0.025,0,.05-0.006.075-0.012l0.013,0,0.059-.015,0.02-.007,0.05-.02,0.021-.011,0.046-.023a0.143,0.143,0,0,1,.022-0.015,0.351,0.351,0,0,0,.04-0.027l0.025-.019c0.011-.008.022-0.018,0.033-0.027l0.026-.025a0.057,0.057,0,0,1,.014-0.013l0.015-.017,0.023-.027c0.009-.012.019-0.024,0.027-0.036l0.012-.016,14.537-21.3,0,0,0.015-.025c0.006-.009.011-0.018,0.016-0.027s0.01-.018.015-0.028,0.009-.018.013-0.027,0.009-.017.013-0.027l0.012-.033,0.009-.025c0.006-.017.01-0.034,0.015-0.052s0-.006,0-0.01c0-.021.009-0.04,0.012-0.06a0.015,0.015,0,0,1,0-.006,0.049,0.049,0,0,0,0-.012c0-.018,0-0.035,0-0.052s0-.016,0-0.023h0Zm-1.428-.9L543,665.049a0.73,0.73,0,0,0-.824.633,0.752,0.752,0,0,0,.605.86l0.6,0.1-13.36,19.572-3.044-3.18,4.011-4.189a0.754,0.754,0,0,0,.158-0.249l3.364-8.657,3.088-4.223,2.752,0.441a0.826,0.826,0,0,0,.11.008,0.732,0.732,0,0,0,.713-0.639,0.751,0.751,0,0,0-.6-0.861l-2.521-.4,0.349-5.542,5.638,1.55Zm-28.493,18.579,9.276-9.691,0.135,0.472a0.727,0.727,0,0,0,.691.539,0.649,0.649,0,0,0,.207-0.033,0.76,0.76,0,0,0,.486-0.937l-0.282-.987,6.652-2.346-2.753,7.085-1.962,2.049-0.954-3.343a0.718,0.718,0,0,0-.9-0.508,0.761,0.761,0,0,0-.486.939l1.177,4.125-1.294,1.352h0l-4.584,4.789Zm10.5,0.316,2.557,2.672-5.625.533ZM525,662.205l2.4-.3-0.971,2.42-4.982,4.3a0.776,0.776,0,0,0-.1,1.061,0.709,0.709,0,0,0,.557.275,0.7,0.7,0,0,0,.459-0.173l5.12-4.421a0.748,0.748,0,0,0,.206-0.289l1.395-3.475,7.857-2.774-0.364,5.793-3.141,4.3-8.6,3.031-0.018.008c-0.016,0-.031.012-0.047,0.018l-0.024.013c-0.017.008-.032,0.018-0.048,0.027l-0.02.013c-0.017.011-.034,0.024-0.05,0.036l-0.014.012c-0.021.018-.042,0.036-0.061,0.055l-9.4,9.827,0.436-6.32,4.881-4.215a0.777,0.777,0,0,0,.1-1.062,0.7,0.7,0,0,0-1.017-.1l-4.066,3.51-0.21-2.375Zm0,0" transform="translate(-513.594 -657)"/>
</svg>
