<svg xmlns="http://www.w3.org/2000/svg" width="137" height="20" viewBox="0 0 137 20">
  <metadata><?xpacket begin="﻿" id="W5M0MpCehiHzreSzNTczkc9d"?>
<x:xmpmeta xmlns:x="adobe:ns:meta/" x:xmptk="Adobe XMP Core 5.6-c142 79.160924, 2017/07/13-01:06:39        ">
   <rdf:RDF xmlns:rdf="http://www.w3.org/1999/02/22-rdf-syntax-ns#">
      <rdf:Description rdf:about=""/>
   </rdf:RDF>
</x:xmpmeta>
                                                                                                    
                                                                                                    
                                                                                                    
                                                                                                    
                                                                                                    
                                                                                                    
                                                                                                    
                                                                                                    
                                                                                                    
                                                                                                    
                                                                                                    
                                                                                                    
                                                                                                    
                                                                                                    
                                                                                                    
                                                                                                    
                                                                                                    
                                                                                                    
                                                                                                    
                                                                                                    
                           
<?xpacket end="w"?></metadata>
<defs>
    <style>
      .cls-1 {
        fill: #2f3236;
        fill-rule: evenodd;
      }
    </style>
  </defs>
  <path id="logo_копия" data-name="logo копия" class="cls-1" d="M329.7,63.4a9.774,9.774,0,0,0-3.478-1.942,14.723,14.723,0,0,0-4.621-.687H314V79.644h7.5a14.56,14.56,0,0,0,4.663-.712,9.96,9.96,0,0,0,3.516-1.984,8.731,8.731,0,0,0,2.167-3.008,9.369,9.369,0,0,0,.757-3.767,9.474,9.474,0,0,0-.751-3.795A8.539,8.539,0,0,0,329.7,63.4Zm-8.014,11.241h-1.864V65.773h1.864a5.293,5.293,0,0,1,3.619,1.187,4.06,4.06,0,0,1,1.333,3.238,4.122,4.122,0,0,1-1.325,3.269A5.338,5.338,0,0,1,321.689,74.637ZM334.447,64.2h5.946V59.987h-5.946V64.2Zm0.12,15.443h5.72V64.933h-5.72V79.644Zm19.352-7.463a4.855,4.855,0,0,0-1.217-.859,10.491,10.491,0,0,0-1.444-.626c-0.468-.161-1.037-0.33-1.686-0.5a13.5,13.5,0,0,1-1.818-.6,0.488,0.488,0,0,1-.363-0.368,0.315,0.315,0,0,1,.174-0.292,1.455,1.455,0,0,1,.736-0.144,7.132,7.132,0,0,1,1.959.331,12.994,12.994,0,0,1,2.255.9l0.248,0.128,2.018-3.615-0.214-.137a10.863,10.863,0,0,0-2.927-1.289,12.063,12.063,0,0,0-3.286-.46,7.1,7.1,0,0,0-4.431,1.313,4.45,4.45,0,0,0-1.736,3.719,4.042,4.042,0,0,0,.3,1.583,3.709,3.709,0,0,0,.766,1.178,4.872,4.872,0,0,0,1.217.859,9.636,9.636,0,0,0,1.449.616c0.459,0.149,1.012.3,1.689,0.476a11.428,11.428,0,0,1,1.779.549,0.494,0.494,0,0,1,.368.368c0,0.139,0,.511-1.016.511a9.3,9.3,0,0,1-4.9-1.535l-0.242-.15-2.223,3.46,0.209,0.15a12,12,0,0,0,7.126,2.212,7.292,7.292,0,0,0,4.549-1.305,4.5,4.5,0,0,0,1.724-3.778,3.842,3.842,0,0,0-.3-1.542A3.774,3.774,0,0,0,353.919,72.181Zm14.766-6.536a9.012,9.012,0,0,0-4.3-1.032,9.244,9.244,0,0,0-3.373.615,8.244,8.244,0,0,0-2.69,1.656,7.675,7.675,0,0,0-1.748,2.45,7.131,7.131,0,0,0-.642,2.968,7.275,7.275,0,0,0,.634,2.983,7.581,7.581,0,0,0,1.737,2.453,8.2,8.2,0,0,0,2.676,1.643,9.57,9.57,0,0,0,6.727-.007,8.212,8.212,0,0,0,2.682-1.656,7.739,7.739,0,0,0,1.742-2.45,7.131,7.131,0,0,0,.642-2.966,7.3,7.3,0,0,0-1.076-3.859A7.7,7.7,0,0,0,368.685,65.645Zm-4.3,9.578a2.645,2.645,0,0,1-2.02-.851,2.877,2.877,0,0,1-.818-2.071,2.943,2.943,0,0,1,.782-2.089,2.573,2.573,0,0,1,2-.835,2.626,2.626,0,0,1,2.012.851,2.889,2.889,0,0,1,.813,2.073,2.948,2.948,0,0,1-.775,2.094A2.563,2.563,0,0,1,364.383,75.224Zm10.061,4.42h5.721V59.987h-5.721V79.644Zm15.444-7.04-2.619-7.671h-6.054l6.1,14.813h5.076l6.095-14.812h-5.974Zm16.288-7.875a16.494,16.494,0,0,0-6.058,1.119l-0.235.093,1.218,4.026,0.289-.11a10.942,10.942,0,0,1,3.937-.76c1.748,0,2.6.6,2.657,1.877a11.355,11.355,0,0,0-3.253-.442,7.205,7.205,0,0,0-4.373,1.208,4.131,4.131,0,0,0-1.661,3.513,4.317,4.317,0,0,0,1.481,3.472,5.629,5.629,0,0,0,3.745,1.238,6.025,6.025,0,0,0,4.037-1.409v1.09h5.668V71.227a6.171,6.171,0,0,0-1.66-4.693C410.726,65.337,408.778,64.73,406.176,64.73Zm-1.54,11.219a1.123,1.123,0,0,1-.4-0.924,1.312,1.312,0,0,1,.518-1.105,2.5,2.5,0,0,1,1.558-.425,5.261,5.261,0,0,1,1.732.273v0.478a1.887,1.887,0,0,1-.62,1.488,2.358,2.358,0,0,1-1.655.566A1.7,1.7,0,0,1,404.636,75.948ZM422.3,61.354h-5.72v3.58h-1.736v4.559h1.736v5.486a4.8,4.8,0,0,0,1.357,3.769,5.7,5.7,0,0,0,3.869,1.189,7.806,7.806,0,0,0,3.715-.848l0.146-.078V74.535l-0.407.192a4.3,4.3,0,0,1-1.824.445,1.22,1.22,0,0,1-.872-0.257,1.233,1.233,0,0,1-.264-0.892V69.493h3.42V64.933H422.3v-3.58Zm17.226,4.291a9.018,9.018,0,0,0-4.3-1.032,9.245,9.245,0,0,0-3.374.615,8.26,8.26,0,0,0-2.689,1.656,7.7,7.7,0,0,0-1.749,2.45,7.123,7.123,0,0,0-.641,2.968,7.257,7.257,0,0,0,.634,2.983,7.589,7.589,0,0,0,1.737,2.453,8.172,8.172,0,0,0,2.676,1.643,9.57,9.57,0,0,0,6.727-.007,8.217,8.217,0,0,0,2.683-1.656,7.777,7.777,0,0,0,1.741-2.45,7.152,7.152,0,0,0,.642-2.966,7.307,7.307,0,0,0-1.075-3.859A7.71,7.71,0,0,0,439.521,65.645Zm-4.3,9.578a2.647,2.647,0,0,1-2.02-.851,2.873,2.873,0,0,1-.818-2.071,2.944,2.944,0,0,1,.781-2.089,2.576,2.576,0,0,1,2-.835,2.626,2.626,0,0,1,2.012.851,2.893,2.893,0,0,1,.813,2.073,2.955,2.955,0,0,1-.775,2.094A2.561,2.561,0,0,1,435.219,75.224ZM445.28,59.987V79.644H451V59.987H445.28Z" transform="translate(-314 -60)"/>
</svg>
