<svg xmlns="http://www.w3.org/2000/svg" width="171.311" height="47.1" viewBox="0 0 171.311 47.1">
  <metadata><?xpacket begin="﻿" id="W5M0MpCehiHzreSzNTczkc9d"?>
<x:xmpmeta xmlns:x="adobe:ns:meta/" x:xmptk="Adobe XMP Core 5.6-c142 79.160924, 2017/07/13-01:06:39        ">
   <rdf:RDF xmlns:rdf="http://www.w3.org/1999/02/22-rdf-syntax-ns#">
      <rdf:Description rdf:about=""/>
   </rdf:RDF>
</x:xmpmeta>
                                                                                                    
                                                                                                    
                                                                                                    
                                                                                                    
                                                                                                    
                                                                                                    
                                                                                                    
                                                                                                    
                                                                                                    
                                                                                                    
                                                                                                    
                                                                                                    
                                                                                                    
                                                                                                    
                                                                                                    
                                                                                                    
                                                                                                    
                                                                                                    
                                                                                                    
                                                                                                    
                           
<?xpacket end="w"?></metadata>
<defs>
    <style>
      .cls-1 {
        fill: #9287fb;
        fill-rule: evenodd;
      }
    </style>
  </defs>
  <path id="Tony_Spencer" data-name="Tony Spencer" class="cls-1" d="M897.266,11484.8a3.241,3.241,0,0,0,.136.6,2,2,0,0,0,.293.5,1.29,1.29,0,0,0,1,0,0.345,0.345,0,0,0,.215-0.4v-0.2c-0.026-.1-0.058-0.2-0.1-0.4s-0.079-.5-0.118-0.8c-0.039-.2-0.072-0.5-0.1-0.7-0.027-.3-0.039-0.4-0.039-0.4v-10.6c0-.2-0.014-0.4-0.039-0.7s-0.059-.7-0.1-1c-0.039-.4-0.078-0.7-0.117-1a5.222,5.222,0,0,0-.1-0.7,1.481,1.481,0,0,1,.469-0.5,1.215,1.215,0,0,1,.547-0.2,4.735,4.735,0,0,0,1.035-.1,8.074,8.074,0,0,0,1.523-.1,7.807,7.807,0,0,0,1.543-.1h1.016a2.213,2.213,0,0,1,.469-0.1,2.21,2.21,0,0,0,.742-0.2,7.076,7.076,0,0,0,.683-0.3,0.551,0.551,0,0,0,.293-0.5H898.2a2.876,2.876,0,0,0-.488-0.3,0.809,0.809,0,0,0-.528-0.1c-0.286,0-.827.1-1.621,0.2s-1.686.2-2.675,0.4-2.019.4-3.086,0.7-2.038.6-2.911,0.9a7.064,7.064,0,0,0-2.07,1.1,1.181,1.181,0,0,0-.6,1.2,1.338,1.338,0,0,0,.293.4,0.678,0.678,0,0,0,.41.3,12.049,12.049,0,0,1,2.422-1.5,23.37,23.37,0,0,1,2.675-1,13.381,13.381,0,0,1,2.813-.4,27.427,27.427,0,0,1,2.871-.2,0.776,0.776,0,0,1,.781.4,1.866,1.866,0,0,1,.313.8,4.721,4.721,0,0,1,.058,1q-0.02.6-.019,0.9c0,0.3.013,0.8,0.039,1.4,0.026,0.7.045,1.4,0.059,2.3,0.012,0.8.039,1.7,0.078,2.6s0.064,1.8.078,2.6,0.032,1.6.058,2.3c0.026,0.6.039,1.1,0.039,1.4A5.041,5.041,0,0,0,897.266,11484.8Zm9.617,0.6c0.208,0.1.416,0.3,0.625,0.4a1.629,1.629,0,0,0,.7.2h0.937a5.058,5.058,0,0,0,3.067-.9,6.269,6.269,0,0,0,1.933-2.2,10.459,10.459,0,0,0,1.016-3.1,16.453,16.453,0,0,0,.312-3.1c0-.5-0.006-1-0.019-1.6a8.408,8.408,0,0,0-.2-1.6,2.707,2.707,0,0,0-.645-1.3,1.572,1.572,0,0,0-1.367-.5,4.772,4.772,0,0,0-2.422.5,6.593,6.593,0,0,0-1.855,1.3,7.375,7.375,0,0,0-1.329,2,11.879,11.879,0,0,0-.839,2.3,19.362,19.362,0,0,0-.469,2.4,19.613,19.613,0,0,0-.156,2.4v0.4q0,0.3.019,0.6c0.013,0.3.02,0.5,0.02,0.7v0.4A6.1,6.1,0,0,0,906.883,11485.4Zm0.7-1.7c0-.1-0.007-0.3-0.02-0.4-0.013-.2-0.019-0.3-0.019-0.4v-0.3a10.841,10.841,0,0,1,.566-3.5c0.377-1,.775-2.2,1.192-3.3a2.535,2.535,0,0,1,.625-0.9c0.234-.1.474-0.2,0.722-0.3a1.778,1.778,0,0,1,.7-0.1c0.221-.1.417-0.1,0.586-0.2a0.956,0.956,0,0,0,.41-0.4,2.016,2.016,0,0,0,.157-0.9,1.589,1.589,0,0,1,1.054.3,2.427,2.427,0,0,1,.489,1,3.911,3.911,0,0,1,.117,1.2q-0.021.6-.02,1.2a16.823,16.823,0,0,1-.214,2.5,9.992,9.992,0,0,1-.743,2.5,5.722,5.722,0,0,1-1.465,1.9,3.737,3.737,0,0,1-2.421.7h-0.9a1.224,1.224,0,0,1-.82-0.3v-0.3Zm11.367,2a0.17,0.17,0,0,0,.137.1,0.581,0.581,0,0,0,.215.2h0.351a0.93,0.93,0,0,0,.352-0.3,1.315,1.315,0,0,0,.312-0.4,5.182,5.182,0,0,1,.391-0.8c0.182-.4.384-0.8,0.605-1.3a14.813,14.813,0,0,0,.7-1.5c0.248-.5.482-1,0.7-1.4,0.221-.5.423-0.9,0.605-1.3s0.313-.6.391-0.8c0.1-.2.227-0.4,0.371-0.7a7.423,7.423,0,0,0,.449-0.8c0.156-.2.312-0.5,0.469-0.7a3.161,3.161,0,0,1,.429-0.5,5.832,5.832,0,0,1,.547-0.6,3.874,3.874,0,0,1,.645-0.7,5.886,5.886,0,0,1,.566-0.5,1.139,1.139,0,0,1,.274-0.3H927.7a12.886,12.886,0,0,1-.195,2.3c-0.131.8-.274,1.5-0.43,2.3-0.156.7-.306,1.5-0.449,2.2a13.521,13.521,0,0,0-.215,2.4,6.262,6.262,0,0,0,.078.9,5.6,5.6,0,0,0,.274,1.1,2.106,2.106,0,0,0,.566.8,1.473,1.473,0,0,0,.957.3,2.835,2.835,0,0,0,.9-0.1c0.313-.2.606-0.3,0.879-0.5a3.254,3.254,0,0,0,.8-0.5,6.59,6.59,0,0,1,.7-0.6,3.456,3.456,0,0,1,.489-0.5,2.834,2.834,0,0,1,.566-0.5,4.954,4.954,0,0,1,.469-0.5,0.912,0.912,0,0,0,.195-0.2v-0.8a1.736,1.736,0,0,0-1.191.4c-0.352.3-.7,0.5-1.055,0.8s-0.723.6-1.113,0.9a2.879,2.879,0,0,1-1.289.4,0.631,0.631,0,0,1-.7-0.4,1.84,1.84,0,0,1-.156-0.8,10.1,10.1,0,0,1,.293-2.4c0.2-.8.4-1.5,0.606-2.3s0.4-1.6.586-2.3a10.848,10.848,0,0,0,.273-2.4v-0.7a5.081,5.081,0,0,0-.078-0.8,2.41,2.41,0,0,0-.254-0.6,0.572,0.572,0,0,0-.527-0.3,2.491,2.491,0,0,0-.84.2c-0.274.2-.534,0.3-0.781,0.5a6.314,6.314,0,0,1-.7.7,5.347,5.347,0,0,0-.566.7,2.464,2.464,0,0,0-.566.6c-0.222.2-.444,0.5-0.664,0.7-0.222.3-.411,0.5-0.567,0.7a1.431,1.431,0,0,0-.273.4c-0.105.1-.293,0.5-0.567,0.9-0.273.5-.553,1-0.84,1.6-0.286.5-.56,1.1-0.82,1.5a11.567,11.567,0,0,0-.508,1.1v-0.2a9.568,9.568,0,0,1,.235-2.1q0.234-1.05.488-2.1t0.469-2.1a8.843,8.843,0,0,0,.215-2c0-.4-0.007-0.7-0.02-1a1.554,1.554,0,0,0-.176-0.7,1.434,1.434,0,0,0-.449-0.6,1.911,1.911,0,0,0-.879-0.2,15.671,15.671,0,0,0-2.344.2,6.2,6.2,0,0,0-1.875.8,10.75,10.75,0,0,0-1.621,1.1c-0.508.5-1.048,1.1-1.621,1.7v0.2a1.3,1.3,0,0,0,.156.6,0.532,0.532,0,0,0,.508.3,2.172,2.172,0,0,0,1.485-.4,2.617,2.617,0,0,0,.879-0.9c0.247-.3.52-0.7,0.82-1a2.69,2.69,0,0,1,1.387-.9,0.583,0.583,0,0,1,.351.1,1.065,1.065,0,0,1,.527.1c0.2,0,.384.1,0.567,0.1a0.734,0.734,0,0,0,.39.1,4.329,4.329,0,0,0,.04.5c0.025,0.2.051,0.4,0.078,0.7,0.025,0.2.052,0.5,0.078,0.7a1.039,1.039,0,0,1,0,.4c-0.026.3-.078,0.6-0.156,1.1s-0.176,1.1-.293,1.7-0.235,1.2-.352,1.9-0.234,1.3-.352,1.9-0.228,1.1-.332,1.6-0.182.9-.234,1.1h0v2.4Zm10.41,19.3a10.439,10.439,0,0,0,.957,1.1,5.783,5.783,0,0,0,1.192.8,3.067,3.067,0,0,0,1.308.3c1.224,0.1,2.533-.5,3.926-1.9a19.5,19.5,0,0,0,3.984-6,49.448,49.448,0,0,0,3.282-9.7,75.833,75.833,0,0,0,1.816-13.1,4.5,4.5,0,0,1-.039-1,6.362,6.362,0,0,1,.137-1c0.064-.3.123-0.7,0.175-1a6.48,6.48,0,0,0,.079-1,4.609,4.609,0,0,0-.059-0.8c-0.039-.3-0.254-0.4-0.645-0.4a1.015,1.015,0,0,0-.625.2,2.051,2.051,0,0,0-.273.6,4.319,4.319,0,0,0-.1.7c-0.013.2-.033,0.4-0.058,0.6a2.751,2.751,0,0,1-.117.7q-0.118.45-.215,0.9a6.637,6.637,0,0,1-.2.9c-0.065.3-.111,0.5-0.136,0.6a9.738,9.738,0,0,1-1.66,3.1,18.491,18.491,0,0,1-2.442,2.7,2.541,2.541,0,0,1-.39.3c-0.157.1-.332,0.2-0.528,0.3s-0.4.2-.605,0.3a1.073,1.073,0,0,1-.508.1,0.827,0.827,0,0,1-.625-0.3,2.369,2.369,0,0,1-.43-0.8,5.736,5.736,0,0,1-.234-0.9,5.166,5.166,0,0,1-.078-0.7v-9.2a0.321,0.321,0,0,0-.352-0.4H935.4a1.471,1.471,0,0,0-.781.2,9.106,9.106,0,0,0-1.211.5,11.218,11.218,0,0,0-1.387.7,13.972,13.972,0,0,0-1.289.8,5.9,5.9,0,0,0-.937.7,0.891,0.891,0,0,0-.371.5,1.345,1.345,0,0,0,.293.8,1.016,1.016,0,0,0,.761.3,3.016,3.016,0,0,0,.821-0.2c0.312-.2.631-0.3,0.957-0.5s0.631-.4.918-0.6,0.52-.4.7-0.5l0.351,0.4c0,0.2.02,0.7,0.059,1.3s0.078,1.3.117,1.9c0.039,0.7.072,1.4,0.1,2s0.052,1,.078,1.3a6.4,6.4,0,0,0,.176,1.4,5.587,5.587,0,0,0,.508,1.4,3.292,3.292,0,0,0,.859,1.2,1.935,1.935,0,0,0,1.27.5,3.537,3.537,0,0,0,1.738-.5,9.182,9.182,0,0,0,1.5-1,10.657,10.657,0,0,0,1.308-1.4c0.4-.5.788-0.9,1.153-1.3v0.3c0,0.1.006,0.3,0.019,0.4s0.02,0.3.02,0.4v0.3c0,0.9-.046,1.9-0.137,2.9s-0.209,2-.352,3-0.293,2-.449,2.9c-0.156,1-.312,1.9-0.469,2.8a19.035,19.035,0,0,1-.7,2.1,26.546,26.546,0,0,1-1.172,2.6q-0.7,1.35-1.523,2.7a15.5,15.5,0,0,1-1.777,2.4,13.232,13.232,0,0,1-1.992,1.8,4.07,4.07,0,0,1-2.051.6,2.009,2.009,0,0,1-1.289-.5,5.4,5.4,0,0,1-.938-1.5,11.355,11.355,0,0,1-.625-2c-0.156-.8-0.273-1.5-0.351-2.2s-0.137-1.3-.176-1.9-0.059-1.1-.059-1.4a15.226,15.226,0,0,1,.176-2.3c0.117-.8.234-1.6,0.352-2.3,0.117-.8.234-1.6,0.351-2.3a16.268,16.268,0,0,0,.176-2.3v-0.3a2.037,2.037,0,0,0-.781,1,8.747,8.747,0,0,0-.528,1.7c-0.143.6-.266,1.3-0.371,2s-0.182,1.4-.234,2.1q-0.078.9-.1,1.8c-0.013.5-.019,0.9-0.019,1.1,0.078,1.5.169,2.7,0.273,3.8s0.234,2.1.391,3.1A4.019,4.019,0,0,0,929.363,11505Zm31.891-26.1a11.046,11.046,0,0,0,1.64,1.7,25.908,25.908,0,0,0,2.247,1.5c0.833,0.5,1.653.9,2.46,1.3s1.556,0.7,2.247,1a10.673,10.673,0,0,0,1.66.6c0.1,0,.357.1,0.761,0.2a7.246,7.246,0,0,1,1.309.3q0.7,0.15,1.367.3a6.277,6.277,0,0,0,.977.2h0.351a4.45,4.45,0,0,0,1.153-.1,3.213,3.213,0,0,0,1-.5,2.313,2.313,0,0,0,.7-0.7,2.168,2.168,0,0,0,.273-1.1,4.089,4.089,0,0,0-1.406-3l-9.219-8.9a11.834,11.834,0,0,1-1.191-1.4,9.064,9.064,0,0,1-1-1.6,7.037,7.037,0,0,1-.664-1.7,7.757,7.757,0,0,1-.235-1.8,3.528,3.528,0,0,1,.293-1.3,6.889,6.889,0,0,1,.762-1.2,4.7,4.7,0,0,1,1.094-.9,3.042,3.042,0,0,1,1.25-.4,3.475,3.475,0,0,1,1.465.4,3.529,3.529,0,0,1,1.133,1,6.627,6.627,0,0,1,.878,1.2q0.39,0.6.8,1.2a6.837,6.837,0,0,0,.86,1,1.818,1.818,0,0,0,1.035.3,0.314,0.314,0,0,0,.351-0.3,4.517,4.517,0,0,0,.039-0.5,4.3,4.3,0,0,0-.664-2.3,6.64,6.64,0,0,0-1.679-1.8,6.367,6.367,0,0,0-2.227-1.1,6.506,6.506,0,0,0-2.3-.4h-1.679a4.711,4.711,0,0,0-2.129,2.2,6.144,6.144,0,0,0-.645,2.9,8.267,8.267,0,0,0,.645,3.3,16.461,16.461,0,0,0,1.777,2.8c0.234,0.2.586,0.6,1.055,1,0.469,0.5,1.015,1,1.64,1.6s1.27,1.2,1.934,1.8c0.664,0.7,1.3,1.3,1.895,1.9s1.132,1.1,1.6,1.6c0.469,0.4.82,0.8,1.055,1,0.286,0.3.54,0.5,0.762,0.7a3.854,3.854,0,0,1,.546.6,2.681,2.681,0,0,1,.45,1.5s-0.007.1-.02,0.3-0.019.3-.019,0.3a1.7,1.7,0,0,0-.411.2c-0.2.1-.4,0.1-0.605,0.2a1.507,1.507,0,0,1-.606.2,0.819,0.819,0,0,1-.41.1,7.091,7.091,0,0,1-1.836-.2c-0.807-.2-1.706-0.4-2.7-0.7q-1.485-.6-3.047-1.2-1.563-.75-2.832-1.5a9.117,9.117,0,0,1-2.09-1.7,2.483,2.483,0,0,1-.82-1.7,1.519,1.519,0,0,1,.293-1,1.892,1.892,0,0,1,.762-0.5,1.814,1.814,0,0,1,1-.3c0.351-.1.683-0.1,1-0.2a1.652,1.652,0,0,0,.762-0.2,0.553,0.553,0,0,0,.293-0.5v-0.2a3.426,3.426,0,0,1-.508-0.2,2.68,2.68,0,0,0-.547-0.2,8.848,8.848,0,0,0-1.524.2,7.215,7.215,0,0,0-1.523.5,3.326,3.326,0,0,0-1.191,1,2.3,2.3,0,0,0-.489,1.5A3.046,3.046,0,0,0,961.254,11478.9Zm17.379,17a1.07,1.07,0,0,0,.859.4q0.86-2.4,1.328-3.9c0.313-.9.54-1.7,0.684-2.2a6.847,6.847,0,0,0,.254-1.2c0.025-.3.052-0.5,0.078-0.7s0.071-.5.137-0.8,0.2-.8.41-1.5a13.279,13.279,0,0,0,4.062-.8,9.019,9.019,0,0,0,3.223-1.9,8.467,8.467,0,0,0,2.129-3,10.336,10.336,0,0,0,.781-4.1c0-.6-0.046-1.3-0.137-2.2a10.713,10.713,0,0,0-.566-2.4,5.607,5.607,0,0,0-1.211-1.9,2.8,2.8,0,0,0-1.992-.8,3.339,3.339,0,0,0-1.426.3,5.339,5.339,0,0,0-1.191.7c-0.365.3-.71,0.7-1.036,1-0.325.4-.631,0.8-0.918,1.1a2.58,2.58,0,0,0-.722-1.7,1.958,1.958,0,0,0-1.328-.2,5.986,5.986,0,0,0-1.582.7,11.039,11.039,0,0,0-1.407.9,0.581,0.581,0,0,0-.312.3,1.471,1.471,0,0,0-.039.4,0.467,0.467,0,0,0,.273.5,1.256,1.256,0,0,0,.586.2h0.2a8.64,8.64,0,0,1,1.347-.7,1.14,1.14,0,0,1,.821,0,0.817,0.817,0,0,1,.39.6,8.256,8.256,0,0,1,.1,1.4q-0.548,2.85-.86,4.8c-0.208,1.4-.384,2.6-0.527,3.7-0.143,1-.28,2-0.41,2.8q-0.2,1.35-.469,2.7c-0.182.9-.43,1.8-0.742,2.9-0.313,1-.7,2.3-1.172,3.7A1.383,1.383,0,0,0,978.633,11495.9Zm6.484-22.5a6.718,6.718,0,0,1,1.856-2.3,2.4,2.4,0,0,1,1.718-.5,2.073,2.073,0,0,1,1.387,1,5.333,5.333,0,0,1,.879,2,9.8,9.8,0,0,1,.234,2.7,8.646,8.646,0,0,1-.644,2.9,4.712,4.712,0,0,1-.821,2.1,9.234,9.234,0,0,1-1.7,1.7,9,9,0,0,1-2.148,1.2,6.108,6.108,0,0,1-2.168.5H983.4a0.51,0.51,0,0,0-.351-0.1,2.761,2.761,0,0,1-.274-0.3,0.336,0.336,0,0,1-.078-0.3Zm8.742,7.2c0.13,0.8.247,1.5,0.352,2.2a5.61,5.61,0,0,0,.566,1.7,2.358,2.358,0,0,0,1.153,1.1,4.131,4.131,0,0,0,2.109.4,7.346,7.346,0,0,0,2.581-.4,9.961,9.961,0,0,0,2.3-1,17.053,17.053,0,0,0,2.07-1.5,19.478,19.478,0,0,0,1.84-1.9,0.922,0.922,0,0,0,.29-0.4,3.053,3.053,0,0,0,.06-0.6v-0.3a1.027,1.027,0,0,0-.57.2q-0.21.15-.39,0.3c-0.11.1-.23,0.3-0.35,0.4a1.115,1.115,0,0,1-.41.4c-0.47.4-.96,0.8-1.48,1.2a11.368,11.368,0,0,1-1.66,1.1,12.734,12.734,0,0,1-1.82.8,4.229,4.229,0,0,1-1.875.4c-0.156,0-.391-0.1-0.7-0.1-0.313-.1-0.612-0.1-0.9-0.2a2.329,2.329,0,0,1-.761-0.5,0.591,0.591,0,0,1-.332-0.6v-3.8a1.576,1.576,0,0,1,.41-1,7.589,7.589,0,0,1,1-.9q0.585-.45,1.289-0.9a7.667,7.667,0,0,0,1.309-1,3.577,3.577,0,0,0,1.016-1.2,2.523,2.523,0,0,0,.41-1.4,0.766,0.766,0,0,0-.18-0.6,2.662,2.662,0,0,0-.43-0.3,1,1,0,0,0-.54-0.1,1.085,1.085,0,0,0-.53-0.1,3.941,3.941,0,0,0-2.325.6,5.023,5.023,0,0,0-1.386,1.5,15.068,15.068,0,0,0-.918,2,17.668,17.668,0,0,1-.84,2.1,1.07,1.07,0,0,1-.664.7,1.833,1.833,0,0,1-.664.2,0.835,0.835,0,0,0-.508.2,1.825,1.825,0,0,0-.2,1s0.006,0.1.019,0.3a2.174,2.174,0,0,0,.078.4,0.648,0.648,0,0,0,.215.2,0.81,0.81,0,0,0,.43-0.1Zm3.867-5.1a0.732,0.732,0,0,1-.468.3c-0.053,0-.053-0.1,0-0.2a1.025,1.025,0,0,1,.254-0.3,0.651,0.651,0,0,1,.312-0.2c0.091-.1.137-0.1,0.137,0A0.536,0.536,0,0,1,997.726,11475.5Zm10.224,10.2a0.181,0.181,0,0,0,.14.1,0.6,0.6,0,0,0,.21.2h0.36a0.924,0.924,0,0,0,.35-0.3,1.406,1.406,0,0,0,.31-0.4,5.668,5.668,0,0,1,.39-0.8c0.18-.4.38-0.8,0.61-1.3a15.8,15.8,0,0,0,.7-1.5c0.25-.5.48-1,0.7-1.4,0.22-.5.43-0.9,0.61-1.3s0.31-.6.39-0.8c0.1-.2.23-0.4,0.37-0.7a8.839,8.839,0,0,0,.45-0.8c0.16-.2.31-0.5,0.47-0.7a2.877,2.877,0,0,1,.43-0.5,5.846,5.846,0,0,1,.54-0.6,4.039,4.039,0,0,1,.65-0.7,5.323,5.323,0,0,1,.57-0.5,1.009,1.009,0,0,1,.27-0.3h0.23a12.9,12.9,0,0,1-.19,2.3c-0.13.8-.28,1.5-0.43,2.3-0.16.7-.31,1.5-0.45,2.2a13.913,13.913,0,0,0-.22,2.4,6.6,6.6,0,0,0,.08.9,4.939,4.939,0,0,0,.28,1.1,2.071,2.071,0,0,0,.56.8,1.489,1.489,0,0,0,.96.3,2.86,2.86,0,0,0,.9-0.1c0.31-.2.6-0.3,0.88-0.5a3.305,3.305,0,0,0,.8-0.5,6.493,6.493,0,0,1,.7-0.6,3.268,3.268,0,0,1,.49-0.5,2.763,2.763,0,0,1,.56-0.5,6.243,6.243,0,0,1,.47-0.5,1.029,1.029,0,0,0,.2-0.2v-0.8a1.737,1.737,0,0,0-1.19.4c-0.35.3-.71,0.5-1.06,0.8s-0.72.6-1.11,0.9a2.872,2.872,0,0,1-1.29.4,0.627,0.627,0,0,1-.7-0.4,1.756,1.756,0,0,1-.16-0.8,10.362,10.362,0,0,1,.29-2.4c0.2-.8.4-1.5,0.61-2.3s0.4-1.6.59-2.3a10.9,10.9,0,0,0,.27-2.4v-0.7a5.37,5.37,0,0,0-.08-0.8,2.551,2.551,0,0,0-.25-0.6,0.584,0.584,0,0,0-.53-0.3,2.458,2.458,0,0,0-.84.2c-0.27.2-.53,0.3-0.78,0.5a6.577,6.577,0,0,1-.7.7,5.008,5.008,0,0,0-.57.7,2.372,2.372,0,0,0-.57.6c-0.22.2-.44,0.5-0.66,0.7-0.22.3-.41,0.5-0.57,0.7a1.422,1.422,0,0,0-.27.4c-0.11.1-.29,0.5-0.57,0.9-0.27.5-.55,1-0.84,1.6-0.28.5-.56,1.1-0.82,1.5-0.26.5-.43,0.9-0.51,1.1v-0.2a9.4,9.4,0,0,1,.24-2.1c0.15-.7.32-1.4,0.49-2.1s0.32-1.4.47-2.1a9.025,9.025,0,0,0,.21-2c0-.4-0.01-0.7-0.02-1a1.569,1.569,0,0,0-.17-0.7,1.534,1.534,0,0,0-.45-0.6,1.936,1.936,0,0,0-.88-0.2,15.745,15.745,0,0,0-2.35.2,6.22,6.22,0,0,0-1.87.8,11,11,0,0,0-1.62,1.1c-0.51.5-1.05,1.1-1.62,1.7v0.2a1.331,1.331,0,0,0,.15.6,0.544,0.544,0,0,0,.51.3,2.145,2.145,0,0,0,1.48-.4,2.534,2.534,0,0,0,.88-0.9c0.25-.3.52-0.7,0.82-1a2.725,2.725,0,0,1,1.39-.9,0.568,0.568,0,0,1,.35.1,1.078,1.078,0,0,1,.53.1c0.19,0,.38.1,0.57,0.1a0.727,0.727,0,0,0,.39.1,3.74,3.74,0,0,0,.04.5c0.02,0.2.05,0.4,0.07,0.7,0.03,0.2.06,0.5,0.08,0.7a0.87,0.87,0,0,1,0,.4c-0.02.3-.08,0.6-0.15,1.1s-0.18,1.1-.3,1.7-0.23,1.2-.35,1.9-0.23,1.3-.35,1.9-0.23,1.1-.33,1.6-0.19.9-.24,1.1h0v2.4Zm12.74-2a2.869,2.869,0,0,0,.43,1.2,1.462,1.462,0,0,0,.88.8,3.077,3.077,0,0,0,1.46.3,6.511,6.511,0,0,0,2.4-.4,8,8,0,0,0,2.13-1,8.992,8.992,0,0,0,1.8-1.6,8.1,8.1,0,0,0,1.37-2.1,0.553,0.553,0,0,0,.07-0.3h-0.74c-0.41.4-.86,0.9-1.35,1.4-0.48.4-.99,0.9-1.54,1.3a11.846,11.846,0,0,1-1.72,1,5.955,5.955,0,0,1-1.87.4,1.733,1.733,0,0,1-1.66-.8,3.628,3.628,0,0,1-.41-1.8c0-.6.01-1.3,0.04-2a11.126,11.126,0,0,1,.29-2.3,10.908,10.908,0,0,1,.72-2.2,3.638,3.638,0,0,1,1.37-1.6,1.618,1.618,0,0,1,.66.8,6.308,6.308,0,0,1,.22.8,1.174,1.174,0,0,0,.33.6,1.34,1.34,0,0,0,1.05.3c0-.3-0.03-0.8-0.09-1.4a11.407,11.407,0,0,0-.35-1.7,5.226,5.226,0,0,0-.73-1.5,1.541,1.541,0,0,0-1.29-.6,1.37,1.37,0,0,0-1.17.7,9.428,9.428,0,0,0-.92,1.8,14.688,14.688,0,0,0-.68,2.4c-0.18.9-.33,1.7-0.45,2.5s-0.21,1.5-.27,2.1c-0.07.7-.1,1.1-0.1,1.3h0A9.832,9.832,0,0,0,1020.69,11483.7Zm10.17-3.1c0.13,0.8.25,1.5,0.35,2.2a5.33,5.33,0,0,0,.57,1.7,2.316,2.316,0,0,0,1.15,1.1,4.13,4.13,0,0,0,2.11.4,7.344,7.344,0,0,0,2.58-.4,9.961,9.961,0,0,0,2.3-1,17.053,17.053,0,0,0,2.07-1.5,19.478,19.478,0,0,0,1.84-1.9,0.922,0.922,0,0,0,.29-0.4,3.053,3.053,0,0,0,.06-0.6v-0.3a1.027,1.027,0,0,0-.57.2q-0.21.15-.39,0.3c-0.11.1-.23,0.3-0.35,0.4a1.115,1.115,0,0,1-.41.4c-0.47.4-.96,0.8-1.48,1.2a11.368,11.368,0,0,1-1.66,1.1,12.734,12.734,0,0,1-1.82.8,4.249,4.249,0,0,1-1.88.4c-0.15,0-.39-0.1-0.7-0.1-0.31-.1-0.61-0.1-0.9-0.2a2.389,2.389,0,0,1-.76-0.5,0.592,0.592,0,0,1-.33-0.6v-3.8a1.6,1.6,0,0,1,.41-1,7.512,7.512,0,0,1,1-.9c0.39-.3.82-0.6,1.28-0.9a7.446,7.446,0,0,0,1.31-1,3.542,3.542,0,0,0,1.02-1.2,2.523,2.523,0,0,0,.41-1.4,0.766,0.766,0,0,0-.18-0.6,2.662,2.662,0,0,0-.43-0.3,1,1,0,0,0-.54-0.1,1.078,1.078,0,0,0-.53-0.1,3.924,3.924,0,0,0-2.32.6,4.985,4.985,0,0,0-1.39,1.5,14.834,14.834,0,0,0-.92,2,18.373,18.373,0,0,1-.84,2.1,1.077,1.077,0,0,1-.66.7,1.877,1.877,0,0,1-.67.2,0.839,0.839,0,0,0-.51.2,1.843,1.843,0,0,0-.19,1s0.01,0.1.02,0.3a1.891,1.891,0,0,0,.08.4,0.677,0.677,0,0,0,.21.2,0.794,0.794,0,0,0,.43-0.1Zm3.87-5.1a0.754,0.754,0,0,1-.47.3c-0.05,0-.05-0.1,0-0.2a0.949,0.949,0,0,1,.25-0.3,0.665,0.665,0,0,1,.31-0.2c0.1-.1.14-0.1,0.14,0A0.515,0.515,0,0,1,1034.73,11475.5Zm8.89,9.3a1.533,1.533,0,0,0,.34.9,1.05,1.05,0,0,0,.72.3c0.05,0.1.19-.1,0.41-0.6s0.51-1.2.88-2c0.36-.9.79-1.8,1.27-2.8a22.814,22.814,0,0,1,1.64-2.9,14.857,14.857,0,0,1,2.01-2.4,4.784,4.784,0,0,1,2.34-1.2,1.2,1.2,0,0,1,.63.1,1.384,1.384,0,0,1,.45.4,4.206,4.206,0,0,0,.49.3,1.512,1.512,0,0,0,.74.2,3.471,3.471,0,0,0-.47-1.9,1.806,1.806,0,0,0-1.64-.8,4.452,4.452,0,0,0-1.95.7,15.2,15.2,0,0,0-2.15,1.8,27.322,27.322,0,0,0-1.92,2c-0.57.7-.99,1.2-1.25,1.6v-5.4a0.837,0.837,0,0,0-.17-0.5,1.075,1.075,0,0,0-.45-0.4,1.746,1.746,0,0,0-.57-0.4,0.875,0.875,0,0,0-.45-0.1,2.123,2.123,0,0,0-1.03.2q-0.615.3-1.17,0.6a7.55,7.55,0,0,0-.98.7,0.825,0.825,0,0,0-.41.7,1.228,1.228,0,0,0,.16.6,0.52,0.52,0,0,0,.5.3c0.39,0,.68-0.1.86-0.1a1.008,1.008,0,0,0,.37-0.2,0.609,0.609,0,0,0,.14-0.2,0.231,0.231,0,0,1,.16-0.2,0.509,0.509,0,0,1,.41-0.2,2.25,2.25,0,0,1,.92-0.1c0,1.1,0,2.1.01,3s0,1.8-.03,2.6-0.12,1.6-.24,2.4a29.394,29.394,0,0,1-.57,2.9v0.1Z" transform="translate(-884.219 -11460.1)"/>
</svg>
