<?xml version="1.0" encoding="utf-8"?>
<!-- Generator: Adobe Illustrator 22.0.0, SVG Export Plug-In . SVG Version: 6.00 Build 0)  -->
<svg version="1.1" id="Слой_1" xmlns="http://www.w3.org/2000/svg" xmlns:xlink="http://www.w3.org/1999/xlink" x="0px" y="0px"
	 viewBox="0 0 147 133" style="enable-background:new 0 0 147 133;" xml:space="preserve">
<style type="text/css">
	.st0{fill:#9E91FC;enable-background:new    ;}
</style>
<path id="Фигура_9" class="st0" d="M30.6,46l0.7,0.2C31.1,46.3,30.8,46.2,30.6,46z M12,41.1c0,0.1-0.1,0.2-0.1,0.2
	C12.1,41.3,12.1,41.2,12,41.1z M138,31.5c-0.1,0-0.1,0.1-0.2,0.1c-0.2-0.1-0.2-0.3-0.1-0.4c0-0.1,0.1-0.1,0.2-0.2l-0.1-0.5l-7,2
	c-2.5-4.3-5.6-8.3-9-11.9c-0.2,0.2-0.4,0.3,0.2,0.4c-0.4,0.2-0.9,0-1.1-0.4c0,0,0,0,0,0c0.2-0.1,0.4-0.2,0.6-0.3
	c-1.7-1.8-3.6-3.5-5.5-5.1c-0.3,0-0.6,0-0.9,0.1c0.2-0.1,0.4-0.2,0.6-0.4C91.3-4.9,56.2-5,31.6,14.8c-0.2,0.2-0.5,0.5-0.8,0.7
	c-0.1,0.1-0.2,0.1-0.2,0.2c0.7-0.2,1.4-0.4,2.1-0.6l-0.6,1.1l0.3-0.1c-1.4,0.9-0.6,2.7-0.7,2.9l0-0.1L29.7,20l-0.1-0.3
	c-1-0.1,0,0.4-1,0.6c-1.2-1.2,1.2-1.8,1.4-3.2c-0.3,0.1-0.5,0.1-0.5,0.3c0.1-0.3,0.1-0.6,0.1-0.9c-4.9,4.3-9.1,9.2-12.5,14.7
	c0.1,0.4-0.3,1.1,0.6,1.4l-1.4,0.4c-0.1,0.2,0.6,0.7,0,0.9c0.5-0.4,0-0.5-0.5-0.4c-0.2,0.3-0.3,0.6-0.5,0.9c-0.3,0.6-0.7,1.2-1,1.8
	c0.6-0.3,1.2-0.6,1.9-0.8c-0.4,0.7,2.5,0.1,0.9,1.1c-0.8-0.1-0.4-1.1-1.8-0.6c-0.2,0.3-0.6,0.5-1.1,0.5c-0.5,1-1,2.1-1.5,3.2
	l0.2-0.1c-0.1,0.1-0.2,0.2-0.3,0.3c-0.1,0.2-0.2,0.4-0.3,0.6c0,0,0.1,0,0.1,0c0,0-0.1,0-0.1,0c0,0,0,0,0,0c0,0.1,0,0.1,0.1,0.2
	c1.6,0,0.4-1.1,1.8-1.3l0.6,0.3c-1,0.4-0.4,0.1-0.5-0.2c-0.6,0.2-0.9,0.8-0.8,1.4c0,0,0,0,0,0l-0.9-0.2c-1.1,0.7,0.7,0.8-0.6,0.8
	c-0.2,0.6-0.5,1.2-0.7,1.8c0.2,0,0.4,0,0.7,0c-0.1,0.7-0.6,1.3-1.2,1.5l0,0.1l1-0.2c-1.1,1.2,0.5,1.6-0.4,2.6
	c-0.2-0.6-0.5-1.1-0.9-1.6C8.1,52.2,7,59,7,65.8l0.1-0.1c0.7,0.2,0.1,0.3-0.2,0.6c0,0.1,0,0.2,0,0.3l0.5-0.2
	c-0.2,0.1-0.4,0.2-0.5,0.3c0,0.3,0,0.5,0,0.8l0.6,0.1L7,68c0,0,0,0,0,0c0,0.1,0,0.2,0,0.3l-7,2l0.9,3l0,0C1,73,1.3,72.8,1.6,72.8
	c-0.1,0.1-0.2,0.2-0.2,0.4l5.8-1.7l6.1-1.8l2.1-0.6c-0.2-0.2-0.8-0.1-0.2-0.6c0.3,0,0.5,0,0.8,0l-0.3,0.5L16,69l3.1-0.9l0.6-0.2
	c0,0,0-0.1-0.1-0.1c-0.1-0.4,2-0.5,1.1-0.9c1.2,0.2,2.6-1,2.7-0.4c0.2-0.1,0.3-0.3,0.4-0.6l1.1,0c-0.4-0.7,1.7-0.5,2.2-1.2L26.4,66
	l5.3-1.5c-0.4-0.3-1-0.3-1.3,0c0.1-0.7,0.1-1.4-0.1-2c0.5,0.4,1.2,0.4,1.7,0L31.7,63l1.1-0.5c-0.9,0.5-0.4,1.1-1,1.9l7-2l3.3-0.9
	l55.4-16l3.3-0.9l19.7-5.7l3.1-0.9l1.6-0.5l0.8-0.7l0.3,0l-1.1,0.7l1.2-0.3l6.1-1.8l6.3-1.8L138,31.5z M7.8,69.2
	c0.8,0,0.5,0.1,0.5,0.5L7,69.8l-0.2-0.5c0.7-0.3,1-1.3,2.1-1.1c-0.2-0.1,0.3-1.1-0.8-0.5l1.3-0.8C10.4,67.5,8.7,68.5,7.8,69.2z
	 M113.9,17c0.5-0.1,0.8-0.2,1.6-0.5C115.3,17,114.2,17,113.9,17l-0.1,0C113.8,17,113.9,17,113.9,17z M112.9,20.4l0.3-0.1
	c-0.1-0.3-0.1-0.7,0-1c0.4,0.7,1,0.8,0.5,1.3C114.1,19.9,112.2,21,112.9,20.4z M105.2,8.9c-0.9,1,1.8,1,2.2,0.9
	c-0.4,0.7-2.2,0.3-2.1,1.1l-1.2-0.2C106.1,10.2,104.2,9.7,105.2,8.9z M108.9,16l-0.4,1.1l-0.2-0.9L108.9,16z M75.7,3.1
	c-1.1,0.5,1.9,0.5-0.3,1C75.8,3.8,74.9,3.4,75.7,3.1L75.7,3.1z M40.5,12.6c0,0.5,0.5,0.4,0.2,0.9c-0.4-0.1-0.8,0-1.2,0.1L40.5,12.6z
	 M35.9,14.4c0,0,0.1,0,0.1-0.1c-0.4-0.2-0.2-0.7-1.1-0.4c0.5-0.1,1-0.2,1.5-0.3c0.3,0.2,0,0.5-0.4,0.7c0.1,0,0.1,0,0.2,0
	C36.1,14.4,36,14.4,35.9,14.4c-0.3,0.1-0.6,0.3-0.8,0.5c1.3,0-0.2,0.7,1.5,0.2c-0.7,1-1.4,0.6-2.7,1.1l-0.1-0.4
	C35.2,16.1,34.2,14.6,35.9,14.4L35.9,14.4z M29.8,23l0.3,0.3c-0.1,0-0.2,0-0.3,0.1C29.8,23.3,29.8,23.2,29.8,23L29.8,23z M24.4,29.9
	c0-0.1-0.1-0.1-0.1-0.2C24.4,29.7,24.4,29.8,24.4,29.9L24.4,29.9z M13,50.8l-0.1,0.6l-0.2-0.7L13,50.8z M23.2,65.7l-1.4-0.1l-1,1.1
	c-2.2-1.3,2.3-1.1,2.6-1.5L23.2,65.7z M25.5,64.2c-0.6,0.4,0.5,1-1,1.3l0.6-0.9c-0.6,0.4-1.4,0.3-2.1-0.1c-0.2,0-0.3,0-0.5,0
	c0.2,0,0.3,0,0.5,0c0.5-0.1,1.1,0,1.6,0.1L25.5,64.2c0.1-0.1,0.2-0.1,0.3-0.1L25.5,64.2z M33.4,63.7l0-0.1l1.1-0.1L33.4,63.7z
	 M48.5,58.6l-0.2,0.2C48.3,58.7,48.4,58.6,48.5,58.6c-0.6-0.3-1.3-0.2-1.8,0.1l1.6-1.3C48.1,57.8,48.6,58.1,48.5,58.6
	C48.4,58.5,48.5,58.6,48.5,58.6L48.5,58.6z M49.7,57.5l1.2-1.6l0.4,0.3C50.8,56.6,51,57.3,49.7,57.5L49.7,57.5z M103.6,42.7
	l-0.4-0.7l0.7,0.1L103.6,42.7z M98.3,41.9L49.6,56c0.1,0.2,0,0.5-0.2,0.7c-0.8,0.1-1.3,0-1.3-0.2L39.4,59l-12.8,3.7
	c0.1,0.1,0.3,0.1,0.4,0.1c-0.6,0.2-0.8,0.2-0.9,0l-7,2C20,34.8,45.1,11.2,75.2,12.1c17.5,0.5,33.7,9.4,43.5,23.9L98.3,41.9z
	 M20.1,49.5l0.1-0.2l1,0.1L20.1,49.5z M21.2,45.4c0.1,0,0.1,0,0.1,0.1C21.3,45.5,21.2,45.5,21.2,45.4L21.2,45.4z M121.8,35.1
	c-3.1-4.8-6.9-9.1-11.3-12.7c-0.1,0.2-0.3,0.4-0.6,0.5c0.1-0.3,0-0.7-0.1-1c-1.5-1.2-3-2.3-4.5-3.3c-0.5,0.3-1,0.6-1.4,1
	c0-0.6,0.3-1.1,0.7-1.4C77.9,0.9,42.3,8.7,25.1,35.4c-5.8,9.1-9,19.6-9.1,30.3l-2.8,0.8c0-1.7,0.1-3.5,0.2-5.2c-0.1,0-0.1,0-0.2,0.1
	c-0.1,0.1-0.3,0.2-0.5,0.1c0.1,0,0.3-0.1,0.5-0.1c0.1-0.1,0.2-0.2,0.2-0.3c0.4-4.7,1.4-9.3,2.9-13.7c-0.3-0.1-0.5-0.4-0.4-0.7
	c-0.1,0-0.2,0-0.3,0.1c0,0.1,0,0.1,0.1,0.2c-0.2,0-0.2-0.1-0.1-0.2c-0.2-0.7,0.7-0.6,1.3-0.8c0.1-0.2,0.1-0.4,0.2-0.6
	c-0.5,0,0.2-0.6,0.3-0.8h0.1C21.5,34,28.4,24.9,37.4,18.2l-0.1-0.2l0.5-0.1C57,3.8,82.8,2.3,103.4,14.2c0.2-0.1,0.5-0.1,0.7-0.1
	c1.1-0.3,0.5-1.3,0.6-1.6c0.6,0.5,0.6,0.8-0.1,1.5c0.9-0.3,1.5-0.7,2.2-0.8l-1.1,0.9c0.6-0.2,1.6-0.8,1.8-0.3l-2.2,1.3
	c-0.2,0-0.4,0-0.5-0.1c8,4.8,14.8,11.5,19.8,19.4L121.8,35.1z M128.3,33.8c0.1,0,0,0.2-0.2,0.5C128.1,34.1,128.2,33.9,128.3,33.8
	c-0.3-0.2-2,0.6-2.1,0.1l1-1.2c0.3,0.8,1.1-0.3,1.8-0.1C129.7,33.2,128.8,33.3,128.3,33.8L128.3,33.8z M23.2,66.9l0.5-0.1
	c-0.1,0-0.3,0-0.4,0C23.2,66.8,23.2,66.8,23.2,66.9z M16.2,32.8c0,0.1-0.1,0.1-0.1,0.2l0.2,0C16.2,32.9,16.2,32.8,16.2,32.8
	L16.2,32.8z M15.9,98l-0.5,0.4l0.1,0l-0.8,0.8l0.9-0.9l-0.2,0L15.9,98z M18.3,98.3L16.5,99l0.7,0.4C16.7,98.7,18.5,98.8,18.3,98.3
	L18.3,98.3z M19,102.6l-0.6-0.5l-0.5,0.7C18.2,103,18.7,102.9,19,102.6L19,102.6z M131.5,66c0.1,0,0.2-0.1,0.3-0.1l0.8-0.5
	c0.5,0.2,1.1,0.2,1.6,0.1c0.2,0,0.3,0.1,0.5,0c-0.2,0-0.3-0.1-0.5,0c-0.6-0.4-1.4-0.4-2.1-0.1l0.6-0.9c-1.4,0.4-0.4,0.9-1,1.3
	L131.5,66z M122.9,66.5l1.1-0.1l0-0.1L122.9,66.5z M108.8,71.5c-0.2,0.4,0.3,0.7,0.2,1.1l1.6-1.3C110.1,71.7,109.4,71.7,108.8,71.5
	c0-0.1,0.1-0.2,0.2-0.3L108.8,71.5C108.8,71.5,108.8,71.5,108.8,71.5L108.8,71.5z M106,73.8l0.4,0.3l1.2-1.6
	C106.2,72.7,106.5,73.4,106,73.8L106,73.8z M53.4,87.9L54,88l-0.4-0.7L53.4,87.9z M125.3,83.5c-0.2,0.9,1.1,0,1.3,0.6
	C127.8,83.1,125.5,84,125.3,83.5L125.3,83.5z M124,87.8l0.2,0.6C124.2,88.2,124.2,87.9,124,87.8L124,87.8z M122.7,94.5
	c0,0.1,0,0.1,0,0.2L122.7,94.5C122.7,94.5,122.7,94.5,122.7,94.5L122.7,94.5z M119.3,98c-0.3,0.3-0.6,0.5-0.9,0.6
	C119.2,99,118.9,98.4,119.3,98c0.2-0.1,0.4-0.2,0.6-0.3C119.7,97.8,119.5,97.9,119.3,98L119.3,98z M43.4,113c-0.3,0-1.4,0-1.6,0.5
	C42.5,113.3,42.9,113.2,43.4,113c0,0,0.1,0,0.1,0L43.4,113z M19.4,98.4c-0.6,0.2,0,0.4-0.1,0.6C19.7,98.9,19.6,98.6,19.4,98.4
	L19.4,98.4z M27.2,106.9c-0.6,0.2-0.5-0.2-1.1,0l0.2,0.7L27.2,106.9z M44.5,124.1L44,124l0.3,0.5C44.9,124.2,44.4,124.3,44.5,124.1
	L44.5,124.1z M114.8,113.6l0,0.1c-0.6,0.4-2,0.2-2.2,1l1,0.9c-0.2,0.1-0.2,0.1,0.1,0l-0.1,0C114.4,115.2,116.8,113.8,114.8,113.6
	L114.8,113.6z M119.9,112.1l-0.4-0.7c-0.5,0.3-0.3,0.5-0.3,0.6l-1.1,0.4L119.9,112.1z M133,84.3L133,84.3
	C132.9,84.3,132.9,84.3,133,84.3l-0.3,0.6C132.8,84.7,132.9,84.5,133,84.3L133,84.3z M133.6,80.5c-0.4,0.2-0.7,0.5-1,0.9
	C133,81.1,133.3,80.8,133.6,80.5L133.6,80.5z M133.8,79.2c-0.1-0.1-0.1-0.1-0.2-0.2C133.6,79.1,133.7,79.1,133.8,79.2L133.8,79.2z
	 M136,84.6c0,0-0.1,0-0.1-0.1C135.9,84.6,136,84.6,136,84.6L136,84.6z M137.1,80.5l-1.1,0.1l1,0.1L137.1,80.5z M146.1,59.6l-4.2,1.2
	c0.2,0.2,0.8,0.1,0.2,0.6c-0.3,0-0.5,0-0.8,0l0.3-0.5l-1.8,0.5l-2.3,0.6c0,0,0,0.1,0.1,0.1c0.1,0.4-2,0.5-1.1,0.9
	c-1.2-0.2-2.6,1-2.7,0.4c-0.2,0.1-0.3,0.3-0.4,0.6l-1.1,0c0.4,0.7-1.7,0.5-2.2,1.2l0.8-1.1l-3,0.9l-2.4,0.7c0.4,0.3,1,0.3,1.3,0
	c-0.1,0.7-0.1,1.4,0.1,2c-0.5-0.4-1.2-0.4-1.7,0l0.3-0.6l-1.1,0.5c0.9-0.5,0.4-1.1,1-1.9l-17.2,5l-3.3,1l-55.4,16l-3.3,0.9
	l-14.1,4.1l-0.8,0.7l-0.3,0l1.1-0.7l-5.6,1.6l-3.1,0.9l-2.8,0.8l-3.5,1c0.1,0.4,0,0.8-0.2,1.1c-1.1,0-0.9-0.4-0.6-0.8l-1.8,0.5
	l-2.6,0.8c0.5,0.4,1.2,0.5,1.8,0.2l-1.9,0.7l0.1,0.3c-0.4-0.2-0.7-0.5-0.7-1l-2.8,0.8c0,0,0,0.1-0.1,0.1l0.8,2.7
	c0.1,0.1,0.1,0.1,0.2,0.2l1.2-0.4l0.2-0.1l-0.1,0l3.8-1.1l0.2-0.7c0.3-0.1,1.1-0.5,1.1-0.1c-0.3,0.1-0.3,0.5-0.4,0.2
	c-0.6,0.1-0.6,0.3-0.7,0.5l1.5-0.4l0.3,0.5h0.6l0.6-1.4c0.4-0.7,0.5,0.1,1-0.2c-0.8,0.5-1.6,1.1-0.2,1.2c-0.3,0.7-1.6,0.4-1.9,0.7
	c0.1,0.2,0.3,0.4,0.4,0.6l0.3-0.1c-0.1,0.1-0.2,0.1-0.3,0.1c3.2,5.1,7.1,9.8,11.6,13.8c0.6,0,0.7,0.1,0.5,0.4
	c3.7,3.3,7.7,6.1,12,8.5c0.2-0.3,0.3-0.6,0.5-0.8c1.1-0.3-0.5,0.9,1.1,0.8l0.1-0.1c-0.2,0.3-0.3,0.5-0.4,0.9
	c10.6,5.6,22.4,8.2,34.3,7.6c0.1-0.3,0.4-0.6,0.9-1.2c-0.7,0.3-0.5,0.4-1.2,0.7c0.2-0.7,0.6-1.3,1.1-1.7c-0.1,0.3-0.4,0.6-0.7,0.8
	l0.9-0.1c0.3,0.4,0.7,0.9,0.9,1.4c4.5-0.4,8.9-1.2,13.2-2.4c9.1-2.6,17.5-7.1,24.7-13.2c-0.1-0.2-0.3-0.3-0.1-0.6c0.2,0,0.5,0,0.7,0
	c14.9-13.1,23.2-32.1,22.7-51.9l7-2L146.1,59.6z M28.9,96.3c-0.1,0,0-0.2,0.2-0.5C29.1,96,29.1,96.1,28.9,96.3
	c0.3,0.2,2-0.6,2.1-0.1v0l17.6-5.1l59-17.1c-0.1-0.2,0-0.5,0.2-0.7c0.8-0.1,1.3,0,1.3,0.2l18.8-5.4c0,1-0.1,2-0.2,2.9
	c0.1,0,0.3,0,0.4,0c-0.2,0.1-0.3,0.3-0.5,0.5c-1.1,12-6.2,23.3-14.5,32.1c0,0,0,0.1,0,0.1l1-0.2c0.6,0.8-1.2,1-1.8,1.6l-0.2-0.4
	c-15.6,15.8-39.3,20.6-59.8,12c0,0.4,0.2,0.7,0.1,0.9c-0.4-0.3-0.5-0.6-0.3-1l-0.4-0.2c-0.4,0.2-0.9,0.4-1.3,0.5l0.9-0.7
	c0,0-0.1,0-0.1,0c-0.6,0.2-1.3,0.6-1.5,0.1l0.8-0.5c-8.8-4.1-16.3-10.4-21.8-18.3c-0.2,0.1-0.4,0.1-0.5,0
	C27.6,96.8,28.5,96.8,28.9,96.3L28.9,96.3z M136,71.9c-0.4,0.2-0.8,0.4-1.2,0.6c-0.2,0,0.8-0.8,0.2-1.1c-0.3,0.5-1.6,0.9-1.4,1.3
	c0,0-0.1,0.1-0.1,0.1c-2.6,24.4-19.7,44.8-43.2,51.6c-2.8,0.8-5.7,1.4-8.6,1.8c0.1,0.2,0.4,0.5-0.2,0.7c0.6-0.3-0.2-0.4-0.4-0.6
	c-15.9,2-31.9-2.4-44.6-12.2c-0.8,0.6-1.8,0.6-2.6,0.2c-0.5-0.7,0.7-0.9,1.3-1.2c-0.2-0.2-0.5-0.4-0.7-0.6c-0.2,0.1-0.3,0.2-0.4,0.3
	c0,0,0,0,0,0c0,0,0,0,0,0c-0.5-0.3-0.3-0.4-0.2-0.8c-0.1-0.1-0.1-0.1-0.2-0.2c-0.1,0-0.2,0.1-0.2,0.1c-0.1,0.1-0.1,0.2,0,0.3
	c-0.1-0.1-0.1-0.2,0-0.3c0-0.1,0.1-0.1,0.1-0.2c-0.1-0.1-0.2-0.1-0.3-0.2c-0.1,0-0.3,0.1-0.4,0.2c0.1-0.2,0-0.4,0-0.5
	c-2-1.8-3.8-3.7-5.5-5.7c-0.7,0.2-1.6-0.1-0.7-0.6c0.3-0.3-0.1,0.6,0.6,0.5c-1-1.1-1.9-2.3-2.8-3.5c-0.1,0-0.1,0-0.2,0l0.1-0.1
	c-0.1-0.1-0.2-0.3-0.3-0.4c-0.3,0.4-0.8,0.5-1.1,0.2c0,0,0,0,0,0l0.2,0.5c-2.1,0-0.5-1,0.3-1.7c-0.3-0.5-0.6-1-0.9-1.4l2.8-0.8
	c1.1,1.6,2.2,3.2,3.4,4.7c0,0,0-0.1,0-0.1c0.1,0.1,0.1,0.2,0.2,0.3c2,2.4,4.1,4.6,6.4,6.7c0.3-0.2,0.7-0.4,0-0.5
	c0.4-0.2,0.9,0,1.1,0.4c0,0,0,0,0,0c-0.3,0.1-0.6,0.3-0.8,0.4c2,1.8,4.2,3.4,6.4,4.9c0,0,0.1,0,0.1,0c0,0-0.1,0-0.1,0
	c3,1.9,6.1,3.6,9.4,5c0.3-0.1,0.6-0.2,0.6-0.5l1.2,0.2c-0.7,0.2-0.9,0.4-1,0.6c29.5,11.8,62.9-2.6,74.7-32.1c0.8-2,1.5-4.1,2.1-6.2
	c-0.2,0-0.3,0-0.5,0.1c-0.3,0.2-0.7,0.3-1.1,0.3c0.4-0.1,0.7-0.2,1.1-0.3c0.2-0.1,0.4-0.2,0.5-0.3c0.9-3.5,1.6-7.1,1.8-10.8
	c-0.1,0-0.2,0-0.3,0l0.4-0.1c0.1-0.8,0.1-1.6,0.1-2.4c0-0.1,0-0.1,0-0.2c0,0,0,0,0,0c-0.1-0.4-0.2-0.8-0.7-0.7
	c0.6-0.2,0.8-0.2,0.9,0l2.6-0.8c0,1.8-0.1,3.5-0.2,5.2c0.6,0.1,1.1-0.1,1.5-0.5c0.1,0.6,1.2,0.2,0.3,0.9L136,71.9
	c0.2-0.1,0.5-0.2,0.7-0.2L136,71.9z M137.2,73.1L137.2,73.1L137.2,73.1c-0.2,0.2-0.3,0.5-0.4,0.7L137.2,73.1
	C137.2,73.1,137.2,73.1,137.2,73.1L137.2,73.1z M136.5,63.3l-1,1.1l-1.4-0.1l-0.1,0.5C134.2,64.4,138.7,64.6,136.5,63.3L136.5,63.3z
	 M134,63.3c0-0.1,0.1-0.1,0.1-0.2l-0.3,0.1l-0.2,0.1C133.7,63.3,133.8,63.3,134,63.3L134,63.3z M23.8,74c-1.1-0.6-2.4-0.9-3.6-0.9
	c-1.5-0.1-2.9,0.1-4.3,0.5L9,75.5l5,17.5l6.7-1.9c1.4-0.4,2.8-1,4-1.9c1.1-0.7,2-1.7,2.6-2.7c0.6-1,1-2.2,1.1-3.3
	c0.1-1.2,0-2.5-0.3-3.7c-0.3-1.2-0.9-2.3-1.7-3.3C25.8,75.3,24.9,74.5,23.8,74L23.8,74z M19.6,86.5l-1.7,0.5l-2.3-8.2l1.7-0.5
	c1.2-0.4,2.4-0.3,3.6,0.2c1,0.5,1.8,1.5,2.1,2.7c0.4,1.1,0.3,2.4-0.3,3.4C21.9,85.5,20.8,86.2,19.6,86.5L19.6,86.5z M28.3,73.5
	l5.3-1.5l-1.1-3.9l-5.3,1.5L28.3,73.5z M32.5,87.8l5.1-1.5l-3.9-13.6l-5.1,1.5L32.5,87.8z M47.9,75.9c-0.4-0.2-0.9-0.4-1.3-0.5
	c-0.5-0.1-1-0.2-1.5-0.2c-0.5,0-1,0-1.6,0c-0.6,0-1.2,0-1.8-0.1c-0.2,0-0.3-0.1-0.4-0.3c0-0.1,0-0.2,0.1-0.3
	c0.2-0.2,0.4-0.3,0.6-0.3c0.6-0.2,1.2-0.2,1.8-0.2c0.8,0,1.5,0.1,2.3,0.3l0.3,0.1l0.9-3.9l-0.2-0.1c-1-0.3-2-0.4-3-0.5
	c-1,0-2.1,0.1-3.1,0.4c-1.4,0.3-2.7,1.2-3.6,2.4c-0.8,1.1-1,2.6-0.6,3.9c0.1,0.5,0.4,1,0.7,1.4c0.3,0.4,0.6,0.7,1,0.9
	c0.4,0.2,0.9,0.4,1.3,0.5c0.5,0.1,1,0.2,1.5,0.2c0.5,0,1,0,1.6,0c0.6,0,1.2,0,1.7,0c0.2,0,0.3,0.1,0.4,0.3c0,0.1,0.1,0.5-0.8,0.7
	c-1.6,0.4-3.2,0.3-4.8-0.2l-0.3-0.1L38,84.2l0.2,0.1c2.2,0.8,4.7,0.9,7,0.2c1.5-0.3,2.8-1.2,3.7-2.4c0.8-1.2,1-2.6,0.5-4
	c-0.1-0.5-0.4-1-0.7-1.4C48.6,76.5,48.2,76.2,47.9,75.9L47.9,75.9z M59.4,66.1c-2.4-0.5-5,0.1-7,1.6c-0.8,0.6-1.5,1.4-2,2.2
	c-0.5,0.8-0.8,1.8-0.9,2.7c-0.1,1-0.1,2,0.2,2.9c0.3,1,0.7,1.8,1.4,2.6c0.6,0.8,1.4,1.4,2.2,1.8c0.9,0.5,1.8,0.7,2.8,0.8
	c1.1,0.1,2.1,0,3.2-0.3c1-0.3,2-0.8,2.9-1.4c1.6-1.2,2.6-3,2.9-4.9c0.1-1,0.1-2-0.2-2.9c-0.4-1.3-1-2.4-2-3.3
	C61.8,67,60.6,66.4,59.4,66.1L59.4,66.1z M58,76.1c-0.7,0.2-1.4,0.1-2-0.3c-0.6-0.4-1.1-1-1.3-1.7c-0.2-0.7-0.2-1.5,0.1-2.1
	c0.6-1.3,2.2-1.7,3.4-1.1c0.1,0,0.1,0.1,0.2,0.1c0.6,0.4,1.1,1,1.3,1.7c0.2,0.7,0.2,1.5-0.1,2.1C59.3,75.5,58.7,75.9,58,76.1
	L58,76.1z M68.2,77.6l5.1-1.5l-5.2-18.3L63,59.4L68.2,77.6z M80.2,67.2l-4.4-6.5l-5.4,1.5l9.4,12.2l4.5-1.3l1.5-15.3l-5.4,1.5
	L80.2,67.2z M92.7,55.7c-1.9,0.5-3.6,1.4-5.1,2.6l-0.2,0.1l2.2,3.4l0.2-0.2c1-0.8,2.1-1.4,3.3-1.7c1.6-0.5,2.5-0.1,2.9,1.1
	c-1,0-2,0.1-3,0.4c-1.4,0.3-2.7,1.1-3.6,2.2c-0.8,1.1-1,2.4-0.6,3.7c0.3,1.2,1.1,2.3,2.2,2.8c1.2,0.5,2.5,0.6,3.7,0.2
	c1.3-0.3,2.5-1.2,3.2-2.3l0.3,1l5.1-1.5l-2.2-7.8c-0.3-1.6-1.3-3.1-2.7-3.9C97,55.1,95.1,55,92.7,55.7L92.7,55.7z M94.3,66.5
	c-0.3-0.1-0.5-0.4-0.6-0.8c-0.1-0.4-0.1-0.8,0.2-1.2c0.3-0.4,0.8-0.7,1.3-0.8c0.5-0.2,1.1-0.2,1.6-0.2l0.1,0.4
	c0.2,0.5,0.1,1.1-0.2,1.5c-0.3,0.5-0.8,0.8-1.3,1C95.1,66.6,94.7,66.6,94.3,66.5L94.3,66.5z M106.3,48.4l-5.1,1.5l0.9,3.3l-1.6,0.4
	l1.2,4.2l1.6-0.5l1.5,5.1c0.3,1.3,1.1,2.5,2.2,3.1c1.2,0.5,2.6,0.6,3.8,0.1c1.2-0.3,2.2-0.9,3.1-1.7L114,64l-1.2-4.2l-0.3,0.3
	c-0.4,0.4-0.9,0.7-1.5,0.9c-0.3,0.1-0.6,0.1-0.8,0c-0.2-0.2-0.4-0.5-0.5-0.8l-1.2-4.2l3.1-0.9l-1.2-4.2l-3.1,0.9L106.3,48.4z
	 M122.9,48c-1.4-0.3-2.8-0.3-4.1,0.1c-1,0.3-2,0.8-2.9,1.4c-0.8,0.6-1.5,1.4-2,2.2c-0.5,0.8-0.8,1.8-0.9,2.7c-0.1,1-0.1,2,0.2,2.9
	c0.3,1,0.7,1.8,1.4,2.6c0.6,0.7,1.4,1.4,2.2,1.8c0.9,0.5,1.8,0.7,2.8,0.8c1.1,0.1,2.1,0,3.2-0.3c1-0.3,2-0.8,2.9-1.4
	c0.8-0.6,1.5-1.4,2-2.2c0.5-0.8,0.8-1.8,0.9-2.7c0.1-1,0.1-2-0.2-2.9c-0.3-1.3-1-2.4-2-3.3C125.3,48.9,124.1,48.3,122.9,48L122.9,48
	z M121.5,58c-0.7,0.2-1.4,0.1-2-0.3c-0.6-0.4-1.1-1-1.3-1.7c-0.2-0.7-0.2-1.5,0.1-2.1c0.3-0.6,0.9-1.1,1.6-1.3
	c0.7-0.2,1.4-0.1,2,0.3c0.6,0.4,1.1,1,1.3,1.7c0.2,0.7,0.2,1.5-0.1,2.1C122.8,57.4,122.2,57.8,121.5,58z M126.5,41.3l5.2,18.3
	l5.1-1.5l-5.2-18.3L126.5,41.3z M38.4,53.9l-7.2-2.7l0.3-0.8l7.2,2.7L38.4,53.9z M38.5,46.2l2.7,1.7l-0.5,0.8l-6.5-4.1l1.1-1.8
	c0.3-0.7,0.9-1.2,1.6-1.5c0.6-0.2,1.2-0.1,1.7,0.3c0.8,0.5,1.2,1.5,0.9,2.4l4,0.1L43,45l-3.7-0.1L38.5,46.2z M37.9,45.8l0.7-1
	c0.3-0.4,0.4-0.9,0.4-1.4c-0.1-0.4-0.3-0.8-0.7-1c-0.3-0.3-0.8-0.3-1.2-0.2c-0.4,0.2-0.8,0.6-1.1,1l-0.6,1L37.9,45.8z M48.5,33.8
	c0.7,0.7,1.2,1.7,1.2,2.8c0,1-0.5,1.9-1.2,2.5c-0.7,0.7-1.7,1.1-2.6,1c-1-0.2-2-0.7-2.6-1.5c-0.7-0.7-1.2-1.7-1.3-2.8
	c0-1,0.5-1.9,1.3-2.5c0.7-0.7,1.6-1,2.6-0.9C47,32.4,47.9,32.9,48.5,33.8L48.5,33.8z M44,37.8c0.5,0.7,1.2,1.1,2.1,1.3
	c0.7,0.1,1.5-0.2,2-0.7c0.6-0.5,0.9-1.1,0.9-1.9c-0.1-0.8-0.5-1.6-1.1-2.2c-0.5-0.7-1.2-1.1-2-1.3c-0.7-0.1-1.4,0.2-2,0.7
	c-0.6,0.5-0.9,1.2-0.9,1.9C43,36.5,43.4,37.3,44,37.8L44,37.8z M60.2,31.7l-0.9,0.4l-6.5-4l0,0c0.4,0.7,0.7,1.3,1,1.8l1.8,3.9
	l-0.7,0.4l-3.3-6.9l0.9-0.4l6.5,4l0,0c0-0.1-0.2-0.4-0.4-0.8s-0.4-0.8-0.5-1l-1.9-4l0.8-0.4L60.2,31.7z M66.9,22.9
	c-0.8,0.1-1.4,0.5-1.8,1.2c-0.4,0.7-0.5,1.6-0.3,2.4c0.1,0.8,0.5,1.6,1.1,2.2c0.6,0.5,1.4,0.6,2.1,0.5c0.6-0.1,1.2-0.3,1.8-0.6
	l0.1,0.8c-0.6,0.3-1.2,0.5-1.9,0.6c-1,0.2-2,0-2.7-0.6c-0.8-0.7-1.3-1.7-1.4-2.7c-0.1-0.7-0.1-1.4,0.1-2.1c0.2-0.6,0.5-1.2,1-1.6
	c0.5-0.4,1.2-0.7,1.9-0.8c0.7-0.1,1.4-0.1,2.1,0.1L68.7,23C68.1,22.9,67.5,22.8,66.9,22.9L66.9,22.9z M74.3,29.4l0.5-7.6l0.9,0.1
	l-0.5,6.8l3.4,0.2l-0.1,0.8L74.3,29.4z M87.2,31.9L87,29.3l-2.9-0.9l-1.6,2l-0.9-0.3l5.2-6.4l0.7,0.2l0.5,8.2L87.2,31.9z M87,28.5
	L86.9,26c0-0.3,0-0.7,0-1.2c-0.2,0.3-0.4,0.6-0.7,1l-1.6,2L87,28.5z M98.7,34c-0.5,0.9-1.4,1.6-2.4,1.9c-1.1,0.1-2.2-0.1-3-0.8
	l-1.8-1.2l4.2-6.4l2,1.3c1.7,0.9,2.3,2.9,1.5,4.6C98.9,33.6,98.8,33.8,98.7,34L98.7,34z M97.9,33.5c0.5-0.7,0.7-1.5,0.6-2.3
	c-0.2-0.8-0.7-1.5-1.5-1.9l-1.1-0.7l-3.3,5.1l0.9,0.6c0.7,0.5,1.6,0.8,2.4,0.6C96.8,34.8,97.5,34.2,97.9,33.5L97.9,33.5z
	 M49.1,100.4l2,1.4l-2.1,2.8c-0.4-0.1-0.7-0.3-1.1-0.5c-0.4-0.2-0.8-0.5-1.2-0.7c-0.8-0.5-1.3-1.3-1.5-2.3c-0.1-1,0.2-2,0.9-2.7
	c0.4-0.6,0.9-1,1.5-1.3c0.6-0.3,1.2-0.4,1.8-0.3c0.7,0.1,1.3,0.4,1.9,0.8c0.6,0.4,1.1,1,1.5,1.6l-0.7,0.4c-0.3-0.6-0.8-1-1.3-1.4
	c-0.6-0.5-1.4-0.7-2.1-0.6c-0.8,0.2-1.4,0.7-1.9,1.3c-0.5,0.6-0.8,1.4-0.7,2.2c0.1,0.8,0.6,1.4,1.3,1.8c0.4,0.3,0.8,0.5,1.3,0.7
	l1.3-1.8l-1.3-0.9L49.1,100.4z M61.7,103l-1.7,4.3c-0.2,0.7-0.7,1.2-1.4,1.5c-0.7,0.2-1.5,0.2-2.2-0.1c-0.7-0.2-1.3-0.7-1.6-1.4
	c-0.3-0.7-0.2-1.4,0.1-2.1l1.7-4.3l0.8,0.3l-1.7,4.4c-0.2,0.5-0.2,1,0,1.5c0.2,0.5,0.7,0.8,1.2,1c0.5,0.2,1,0.2,1.5,0.1
	c0.5-0.2,0.8-0.6,1-1.1l1.7-4.4L61.7,103z M69.3,111.7l-0.6-2.4l-2.9-0.4l-1.2,2.1l-0.8-0.1l3.8-6.8l0.7,0.1l1.8,7.5L69.3,111.7z
	 M68.6,108.5l-0.5-2.3c-0.1-0.3-0.1-0.7-0.2-1.1c-0.1,0.3-0.3,0.7-0.4,1l-1.1,2.1L68.6,108.5z M75.8,108.7l0.3,3l-0.8,0.1l-0.7-7.2
	l2-0.2c0.7-0.1,1.4,0,2,0.3c0.5,0.3,0.8,0.9,0.8,1.5c0.1,0.9-0.4,1.8-1.3,2.1l2.3,3l-1,0.1l-2-2.8L75.8,108.7z M75.7,108l1.1-0.1
	c0.5,0,0.9-0.2,1.3-0.5c0.3-0.3,0.4-0.7,0.3-1.1c0-0.4-0.2-0.8-0.5-1c-0.4-0.2-0.9-0.3-1.4-0.2l-1.1,0.1L75.7,108z M89.6,108.7
	l-1.6-1.9l-2.7,0.9l-0.1,2.5l-0.8,0.3l0.4-7.7l0.7-0.2l5,6L89.6,108.7z M87.5,106.2l-1.5-1.9c-0.2-0.2-0.4-0.5-0.6-0.9
	c0,0.4,0,0.7,0,1.1l-0.1,2.4L87.5,106.2z M99.7,103.2l-0.8,0.5l-6.6-3l0,0c0.4,0.6,0.8,1.1,1.1,1.6l2.2,3.5l-0.7,0.4l-3.9-6.1
	l0.8-0.5l6.5,3l0,0c-0.1-0.1-0.2-0.3-0.5-0.7s-0.5-0.7-0.6-0.9l-2.2-3.5l0.7-0.4L99.7,103.2z M105.9,97.7l-0.6,0.6l-4.6-4.5
	l-1.6,1.6L98.5,95l3.8-3.9l0.5,0.5l-1.6,1.6L105.9,97.7z M112.6,88.7l-2.1,3.4l-6.1-3.8l2.1-3.4l0.6,0.4l-1.7,2.7l2,1.2l1.6-2.5
	l0.6,0.4l-1.6,2.5l2.2,1.4l1.7-2.7L112.6,88.7z M116.4,80l-1.4,3.8l-6.8-2.5l1.4-3.8l0.7,0.3l-1.1,3l2.2,0.8l1-2.8l0.7,0.3l-1,2.8
	l2.5,0.9l1.1-3L116.4,80z"/>
</svg>
